<mxfile host="app.diagrams.net" modified="2021-02-27T02:46:00.844Z" agent="5.0 (Macintosh; Intel Mac OS X 10_14_6) AppleWebKit/537.36 (KHTML, like Gecko) Chrome/88.0.4324.192 Safari/537.36" etag="krnB6YK9kwFoaGyyvtzr" version="14.4.3" type="github">
  <diagram id="1GQJTd4agldS5ioSrfg7" name="Page-1">
    <mxGraphModel dx="1354" dy="1547" grid="1" gridSize="10" guides="1" tooltips="1" connect="1" arrows="1" fold="1" page="1" pageScale="1" pageWidth="850" pageHeight="1100" math="1" shadow="0">
      <root>
        <mxCell id="0" />
        <mxCell id="1" parent="0" />
        <mxCell id="xQ31_4lAjrQs9WSGZhHq-33" value="" style="shape=image;verticalLabelPosition=bottom;labelBackgroundColor=#ffffff;verticalAlign=top;aspect=fixed;imageAspect=0;image=data:image/png,iVBORw0KGgoAAAANSUhEUgAAAyAAAAJYCAYAAACadoJwAAAACXBIWXMAAAsTAAALEwEAmpwYAAAKT2lDQ1BQaG90b3Nob3AgSUNDIHByb2ZpbGUAAHjanVNnVFPpFj333vRCS4iAlEtvUhUIIFJCi4AUkSYqIQkQSoghodkVUcERRUUEG8igiAOOjoCMFVEsDIoK2AfkIaKOg6OIisr74Xuja9a89+bN/rXXPues852zzwfACAyWSDNRNYAMqUIeEeCDx8TG4eQuQIEKJHAAEAizZCFz/SMBAPh+PDwrIsAHvgABeNMLCADATZvAMByH/w/qQplcAYCEAcB0kThLCIAUAEB6jkKmAEBGAYCdmCZTAKAEAGDLY2LjAFAtAGAnf+bTAICd+Jl7AQBblCEVAaCRACATZYhEAGg7AKzPVopFAFgwABRmS8Q5ANgtADBJV2ZIALC3AMDOEAuyAAgMADBRiIUpAAR7AGDIIyN4AISZABRG8lc88SuuEOcqAAB4mbI8uSQ5RYFbCC1xB1dXLh4ozkkXKxQ2YQJhmkAuwnmZGTKBNA/g88wAAKCRFRHgg/P9eM4Ors7ONo62Dl8t6r8G/yJiYuP+5c+rcEAAAOF0ftH+LC+zGoA7BoBt/qIl7gRoXgugdfeLZrIPQLUAoOnaV/Nw+H48PEWhkLnZ2eXk5NhKxEJbYcpXff5nwl/AV/1s+X48/Pf14L7iJIEyXYFHBPjgwsz0TKUcz5IJhGLc5o9H/LcL//wd0yLESWK5WCoU41EScY5EmozzMqUiiUKSKcUl0v9k4t8s+wM+3zUAsGo+AXuRLahdYwP2SycQWHTA4vcAAPK7b8HUKAgDgGiD4c93/+8//UegJQCAZkmScQAAXkQkLlTKsz/HCAAARKCBKrBBG/TBGCzABhzBBdzBC/xgNoRCJMTCQhBCCmSAHHJgKayCQiiGzbAdKmAv1EAdNMBRaIaTcA4uwlW4Dj1wD/phCJ7BKLyBCQRByAgTYSHaiAFiilgjjggXmYX4IcFIBBKLJCDJiBRRIkuRNUgxUopUIFVIHfI9cgI5h1xGupE7yAAygvyGvEcxlIGyUT3UDLVDuag3GoRGogvQZHQxmo8WoJvQcrQaPYw2oefQq2gP2o8+Q8cwwOgYBzPEbDAuxsNCsTgsCZNjy7EirAyrxhqwVqwDu4n1Y8+xdwQSgUXACTYEd0IgYR5BSFhMWE7YSKggHCQ0EdoJNwkDhFHCJyKTqEu0JroR+cQYYjIxh1hILCPWEo8TLxB7iEPENyQSiUMyJ7mQAkmxpFTSEtJG0m5SI+ksqZs0SBojk8naZGuyBzmULCAryIXkneTD5DPkG+Qh8lsKnWJAcaT4U+IoUspqShnlEOU05QZlmDJBVaOaUt2ooVQRNY9aQq2htlKvUYeoEzR1mjnNgxZJS6WtopXTGmgXaPdpr+h0uhHdlR5Ol9BX0svpR+iX6AP0dwwNhhWDx4hnKBmbGAcYZxl3GK+YTKYZ04sZx1QwNzHrmOeZD5lvVVgqtip8FZHKCpVKlSaVGyovVKmqpqreqgtV81XLVI+pXlN9rkZVM1PjqQnUlqtVqp1Q61MbU2epO6iHqmeob1Q/pH5Z/YkGWcNMw09DpFGgsV/jvMYgC2MZs3gsIWsNq4Z1gTXEJrHN2Xx2KruY/R27iz2qqaE5QzNKM1ezUvOUZj8H45hx+Jx0TgnnKKeX836K3hTvKeIpG6Y0TLkxZVxrqpaXllirSKtRq0frvTau7aedpr1Fu1n7gQ5Bx0onXCdHZ4/OBZ3nU9lT3acKpxZNPTr1ri6qa6UbobtEd79up+6Ynr5egJ5Mb6feeb3n+hx9L/1U/W36p/VHDFgGswwkBtsMzhg8xTVxbzwdL8fb8VFDXcNAQ6VhlWGX4YSRudE8o9VGjUYPjGnGXOMk423GbcajJgYmISZLTepN7ppSTbmmKaY7TDtMx83MzaLN1pk1mz0x1zLnm+eb15vft2BaeFostqi2uGVJsuRaplnutrxuhVo5WaVYVVpds0atna0l1rutu6cRp7lOk06rntZnw7Dxtsm2qbcZsOXYBtuutm22fWFnYhdnt8Wuw+6TvZN9un2N/T0HDYfZDqsdWh1+c7RyFDpWOt6azpzuP33F9JbpL2dYzxDP2DPjthPLKcRpnVOb00dnF2e5c4PziIuJS4LLLpc+Lpsbxt3IveRKdPVxXeF60vWdm7Obwu2o26/uNu5p7ofcn8w0nymeWTNz0MPIQ+BR5dE/C5+VMGvfrH5PQ0+BZ7XnIy9jL5FXrdewt6V3qvdh7xc+9j5yn+M+4zw33jLeWV/MN8C3yLfLT8Nvnl+F30N/I/9k/3r/0QCngCUBZwOJgUGBWwL7+Hp8Ib+OPzrbZfay2e1BjKC5QRVBj4KtguXBrSFoyOyQrSH355jOkc5pDoVQfujW0Adh5mGLw34MJ4WHhVeGP45wiFga0TGXNXfR3ENz30T6RJZE3ptnMU85ry1KNSo+qi5qPNo3ujS6P8YuZlnM1VidWElsSxw5LiquNm5svt/87fOH4p3iC+N7F5gvyF1weaHOwvSFpxapLhIsOpZATIhOOJTwQRAqqBaMJfITdyWOCnnCHcJnIi/RNtGI2ENcKh5O8kgqTXqS7JG8NXkkxTOlLOW5hCepkLxMDUzdmzqeFpp2IG0yPTq9MYOSkZBxQqohTZO2Z+pn5mZ2y6xlhbL+xW6Lty8elQfJa7OQrAVZLQq2QqboVFoo1yoHsmdlV2a/zYnKOZarnivN7cyzytuQN5zvn//tEsIS4ZK2pYZLVy0dWOa9rGo5sjxxedsK4xUFK4ZWBqw8uIq2Km3VT6vtV5eufr0mek1rgV7ByoLBtQFr6wtVCuWFfevc1+1dT1gvWd+1YfqGnRs+FYmKrhTbF5cVf9go3HjlG4dvyr+Z3JS0qavEuWTPZtJm6ebeLZ5bDpaql+aXDm4N2dq0Dd9WtO319kXbL5fNKNu7g7ZDuaO/PLi8ZafJzs07P1SkVPRU+lQ27tLdtWHX+G7R7ht7vPY07NXbW7z3/T7JvttVAVVN1WbVZftJ+7P3P66Jqun4lvttXa1ObXHtxwPSA/0HIw6217nU1R3SPVRSj9Yr60cOxx++/p3vdy0NNg1VjZzG4iNwRHnk6fcJ3/ceDTradox7rOEH0x92HWcdL2pCmvKaRptTmvtbYlu6T8w+0dbq3nr8R9sfD5w0PFl5SvNUyWna6YLTk2fyz4ydlZ19fi753GDborZ752PO32oPb++6EHTh0kX/i+c7vDvOXPK4dPKy2+UTV7hXmq86X23qdOo8/pPTT8e7nLuarrlca7nuer21e2b36RueN87d9L158Rb/1tWeOT3dvfN6b/fF9/XfFt1+cif9zsu72Xcn7q28T7xf9EDtQdlD3YfVP1v+3Njv3H9qwHeg89HcR/cGhYPP/pH1jw9DBY+Zj8uGDYbrnjg+OTniP3L96fynQ89kzyaeF/6i/suuFxYvfvjV69fO0ZjRoZfyl5O/bXyl/erA6xmv28bCxh6+yXgzMV70VvvtwXfcdx3vo98PT+R8IH8o/2j5sfVT0Kf7kxmTk/8EA5jz/GMzLdsAAAAgY0hSTQAAeiUAAICDAAD5/wAAgOkAAHUwAADqYAAAOpgAABdvkl/FRgAALWVJREFUeNrs3XeYpmV99+HPioAoWGKJFcXYEbEgFuxRbNEIxl4SjSZKYosG0dhbxBaNNXbfmJiowVejibFgjcGCBFFea2JHARWVorR9/7juydyz2YUFtkw5z+O4j7mue2aW5Tezz/N8n6utW79+fQAAANvChZQAAAAQQAAAAAEEAABAAAEAAAQQAAAAAQQAABBAAAAAAQQAAEAAAQAABBAAAAABBAAAEEAAAAABBAAAQAABAAAEEAAAAAEEAAAQQAAAAAEEAABAAAEAAAQQAAAAAQQAABBAAAAAAQQAAEAAAQAABBAAAAABBAAAEEAAAAABBAAAQAABAAAEEAAAAAEEAAAQQAAAAAQQAABAAAEAAAQQAAAAAQQAABBAAAAABBAAAEAAAQAABBAAAAABBAAAEEAAAAAEEAAAQAABAAAEEAAAAAEEAAAQQAAAAAQQAABAAAEAAAQQAAAAAQQAABBAAAAABBAAAEAAAQAABBAAAAABBAAAEEAAAAAEEAAAQAABAAAQQAAAAAEEAAAQQAAAAAQQAABAAAEAABBAAAAAAQQAABBAAAAABBAAAEAAAQAAEEAAAAABBAAAEEAAAAAEEAAAQAABAAAQQAAAAAEEAAAQQAAAAAQQAABAAAEAABBAAAAAAQQAABBAAAAABBAAAEAAAQAAEEAAAAABBAAAEECUAAAAEEAAAAABBAAAQAABAAAEEAAAAAEEAAAQQAAAAAEEAABAAAEAAAQQAAAAAQQAABBAAAAAAQQAAEAAAQAABBAAAAABBAAAEEAAAAABBAAAQAABAAAEEAAAAAEEAAAQQAAAAAEEAABAAAEAAAQQAAAAAQQAABBAAAAAAQQAAEAAAQAABBAAAAABBAAAEEAAAAAEEAAAQAABAABWqQsrAcDKdOABB2ytP3rP6mbVTab2VaorVL+qTqpOrI6tvlZ9pvqP6nQ/Edg+DnvPexQBAQSAFWXH6i7VgdX+1RU38XW7VJeq9qhuOrt/avWJ6u+qw6rTlBQAAQSADV23Oqh6QHXpC/DnXLS663T9vHp79aLqu0oMgAACwB2rJ1Z3rtZt5PM/qz5VHVEdXX2j+mG1c3XJxnSs61Q3qm5bXX/2vZeo/qT6oymIPG36XgAQQADWmFtXf1ntt5HP/bD6++q9jTUdZ23ka06pflr9V/Xvs/tXqR5Y/cEUTGpM63pYdZ/qudXLs04EgOyCBbAWXKV6d/XJDcLH2dX7Gus/dq/+vPr0JsLHOfledWhjStf+jfUgC3adPndktZcfBQACCMDqdeHGVKtjq3vP7p9ZvbG6XvW71b+dj9CxKR+ublfdvjpqdv/61eeqx7XxaV8ACCAArGDXbmyR+5LGKETV+uqdU/B4ZGMb3a3l49U+1WMaU7eqLtKYivXu2d8JAAEEgBVsXfWo6ost3Sr3y9Vtqvs1FpVvC2dXr2qcJ3Lk7P6BjTUkV/bjAhBAAFi5dq3+sXptY2vcGocHHlLduLG+Y3v4WnXL6pWzezdoLHa/jh8bgAACwMpzzca2ufeZ3TumMQpyaHXGdv77nV49tjE6s/B3uXJjqtbefnwAAggAK8cdGwu895z666tXVPs2pl4tJ3/TOLDwF1P/N6vDG+tFABBAAFjmHlx9oHFAYNVpjTM5Ht+YfrUcfbS6Q3Xi1P+N6l9mAQoAAQSAZejPq/9T7TT1v1fdqvqHFfB3P7IxcnPC1L9s9cHGeSQArGJOQmerOfCAAxQBtp7nV0/d4AX93arjV9D/w9HVnauPVZdorAn5aGPB+gl+xACrkxEQgJXnBRuEj481pjQdvwL/X45qnMR+6tS/RmMnr538mAEEEACWR/h4yqz/3sbIxy9W8P/TEdUDWjyN/fYt3bIXAAEEgO3gkA3Cxzure7d8F5ufF+/b4P/tjxqnqAMggACwHfxRY/RjwXurh7Q4arAavLh6y6z/kuoWfvQAAggA29Y9q9dU66b+v1X3bRzut9o8uvr81N6psaPXpf0KAAggAGwbN6veUe0w9T9VHbhKw0fVrxunuf9s6u9evXUWvgAQQADYSq5U/VN10an/zcaaj1NX+f/3d6o/aJzoXvU71RP8OgAIIABsPTtP4eNKU/8n1V1bO+djvK962az/gur6fi0ABBAAto6/aUy/qjHd6r6NEZC15KnVF2aB7O05HwRAAAFgizuo+v1Z/1HV4WuwDqdPdVjYZnjv6ll+PQAEEAC2nBtVL53139zSrWnXmmNbej7IwdmaF0AAAWCL2LWx49VFpv7ROYyv6hXVx6b2DtUbG1OyABBAALgAXlNde2r/vLHu41RlaX318OqUqX+96mnKAiCAAHD+PahxsvmCR1ZfV5b/8e3q6bP+wVMQAUAAAeA8unz117P+W6p3Kcv/8tctPSX99TmgEEAAAeA8e331G1P7uzl0b1POqh5RnTH196seqiwAAggAm++h1T2m9vrqYY31H2zcl1q6S9ih1SWVBUAAAeDcXbF6+az/ytbmeR/n1fMaI0VVv1k9W0kABBAAzt1Lq0tN7W9UhyjJZjmletKsf1B1Q2UBEEAA2LQ7Vvff4EX0acqy2d5VfWhqX7ili/gBEEAAmNm5evWs/47qI8pynj2uxQXpt67urSQAAggA/9ufV9ea2j+vnqgk58tXG+tmFrwoJ6QDCCAALLFH9dRZ/2nVccpyvj23+snUvnr1GCUBEEAAWPSKapepfWT1WiW5QE6qnrVBoLussgAIIADU3Vs88+Ps6tGNw/W4YF7XmI5VdYnqmUoCIIAArHUXael6hTdUn1eWLeLMlm7L+8ctrrEBQAABWJMOaaz/qDqx+gsl2aI+UH1sal+4+kslARBAANaqPaonz/pPaXHhNFvOk6v1U/vAaj8lARBAANai5zWmYFUdUb1JSbaKz1fvnvVfVK1TFgABBGAtuVH1gFn/iS2+S8+W9xctHk54y8ZICAACCMCacWiL78IfVn1GSbaqbzQW+C94XrWDsgAIIABrwR2rO03tM1t6ACFbz3Oqk6f2daoHKwmAAAKw2q2rXjjrv6H6mrJsEz+uXjbrP7PaUVkABBCA1eze1U2m9inVs5Vkm3pJdfzU3qP6QyUBEEAAVqt11dNn/Vc23pVn2/ll9YJZ/2nVLsoCIIAArEYHVDeYvRB+iZJsF39T/WBqX6l6lJIACCAAq8266hmz/qtz6OD28quWnoh+cEZBAAQQgFXmntXeU9vox/b3huq7U/vy1SOVBEAAAVgtNhz9eGVGP7a306vnz/oHVzsrC4AAArAa3LW68dQ+uforJVkW3lp9Z2pfqXq4kgAIIACrwcGz9huqE5VkWTi9pWeyPLnaSVkABBCAlezm1W1nL3hfpiTLypur70/tq1YPVRIAAQRgJXvyrP322YtdlofTW7oj1lOqCysLgAACsBJdp7H7VdXZ1YuUZFl6U/XDqX316kFKAiCAAKxET5o9nr6n+pqSLEu/bum2yE+tdlAWAAEEYCW5QvWQWd+5H8vb61vcHOBa1f2UBEAAAVhJDmpxR6Ujpovl65TqFbP+X3guBBBAAFaKXapHzfrO/VgZXlX9fGpfrzpASQAEEICV4MHVZab2d6vDlGRFOKl6zaz/9MYp9gAIIADL1rrq8bP+K6szlWXF+Kvq1Km9d3V3JQEQQACWs/0b03eqTq7eqCQrygmNBekLDlESAAEEYDl7wqz9lsa0HlaWlzQOKKzar7q1kgAIIADL0fUaIyA1Dh78ayVZkX4whccFT1ESAAEEYDl6bIuLlj9UfVNJVqwXt7h25y7VDZUEQAABWE4uWT1o1n+5kqxo36reNbXXZS0IgAACsMw8otp1ah/bGAFhZXthtX5q/151DSUBEEAAlstj5vzgwZfPXriycn2p+pepvUN1sJIACCAAy8E9qt+a2idWb1eSVeOFs/bvV1dUEgABBGB7+5NZ+43VaUqyanx6uqp2qv5MSQAEEIDt6XrVHaf2WdVrlWTV+ctZ+4+r31ASAAEEYHt5VItb776/+q6SrDr/Wh09tXet/lRJAAQQgO1h1+oPZv1XK8mqtL46dNZ/TIs7ngEggABsMw+tdpvaX60+oiSr1rsaZ4NUXaax7TIAAgjANjVffP6abL27mp3ZOB19wZ81FqUDIIAAbBO3ayxArzq5+lslWfXeVh03ta9SPVhJAAQQgG3loFn77dVJSrLq/apxyOSCgz1fAgggANvCFasDZv1XKcma8dpZ2Lx2daCSAAggAFvbH1cXntofr76iJGvGLzcInIcoCYAAArA17VQ9ctZ/jZKsOa+oTp3aN6nupCQAAgjA1nJAdYWp/YPqPUqy5pxYvWHWf4qSAAggAFvLfOvd1zW2Z2XteWl1+tS+fXUzJQEQQAC2tBtUt57ap1dvUpI163vV3836RkEABBCALW4++vFPLZ4Jwdp0aHX21L5ntaeSAAggAFvKJasHzvq23uVr1WFTe131ZCUBEEAAtpSHVrtO7aOqzygJ1V/O2g+orqYkAAIIwAW1rvrTWf/VSsLki9WHpvaFqycpCYAAAnBB7V9dc2r/tPp7JWHmBbP2w6vfVBIAAQTggpiPfry5Ok1JmPlEi1PydqkepyQAAgjA+XWN6m5T++zqtUrCRrxw1n50dQklARBAAM6PR80eE/+l+i8lYSPeXx0ztS9ZHaQkAAIIwHl1seoPZ31b77Ip61s6CvKE6qLKAiCAAJwXD2y8m131zRZ3O4KNeWf1ral92eqPlARAAAE4Lx4za7+68S43bMqZ1Utm/SdVOykLgAACsDluV+01tU+u3qokbIa3VsdN7StVD1MSAAEEYHPMFxH/fXWSkrAZflW9bNY/uHFAIQACCMAm7V4dMOtbfM558brqxKl99er+SgIggACck0e2+K71J1rcXhU2x8ktHQV5qudVAAEEYFN2apz9seA1SsL58JoWp+1dt7q3kgAIIAAbc//qMlP7u9VhSsL58PPqFbP+06p1ygIggABs6E9m7dc1tlaF8+Ovq19O7RtU91ISAAEEYO7m1b5T+7TqDUrCBfDTxvkxC56eURAAAQRg5gmz9ttb3MkIzq+XVadO7RtVd1cSAAEEoMbWuwdO7fXVy5WELeCE6m9m/WcoCYAAAlD1mBa33v1QdaySsIW8uHFAYdVNq7soCYAAAqxtu1aPmPVfqyRsQcdVb5r1n6YkAAIIsLY9rLrk1P5m9c9Kwhb2ly2OguxX3UlJAAQQYO0+3j121v/r6mxlYQv7QUt3VXu2kgAIIMDadI/qGlP7pOotSsJW8sIWR0FuUd1VSQAEEGDtefys/arqZCVhK/lhS0dBnqUkAAIIsLbsW91uap9evUZJ2Mpe2DjkcuH3z7kgAAIIsIY8cdb++8ZuRbA1/bB6/az/rJyODiCAAGvCNap7T+31jbMaYFuYj4LsU/2OkgAIIMDq9/hqh6nt4EG2pR+19KyZZ2UUBEAAAVa1y1QPn/VfpCRsYy9qcRTkxtW9lAQQQABWrz+pdpnaR1WHKwnb2I9buunBcz33AgIIwOq0S/Wns/5LlITt5EUtbvu8Z/UgJQEEEIDV52GNKVhV36reqSRsJ8dXr5j1n1ntqCyAAAKweuxYHTzrv7g6U1nYjl5a/Wxq/1ZL1yYBCCAAK9yDq6tO7eOqtyoJ29nPphCy4Oktrk8CEEAAVvjj2iGz/suqXysLy8ArGtOxqq5UPVpJAAEEYOW7b3Wtqf2z6nVKwjJxcvWCWf+QajdlAQQQgJVrXfWUWf+VLe4+BMvB66rvTO3LVk9QEkAAAVi5fqe6wdQ+eQogsJz8unEi+oInVZdTFkAAAViZnjZrv6E6UUlYhv62OnZq77bB7y2AAAKwQtyp2ndqn5aDB1m+ztogdDyqsTUvgAACsII8Z9Z+ffVDJWEZ+7/VEVN7x+r5SgIIIAArx12rm0/t06oXKgnL3PqWHpZ532ofZQEEEIDlb11LRz9eW/1IWVgBPlW9b/Z7fKiSAAIIwPJ3jxbfOT61epGSsII8pTpzat+hurOSAAIIwPK1rnr2rP+a6sfKwgpybPXWWf9FnpsBAQRg+TqwuuHUPqV6sZKwAj1z+v2tcY7NHygJIIAALM/Hr2fO+q+ujlcWVqAftnTb6OdXuyoLIIAALC/3r/aa2r+sXqokrGAvro6b2pevDlESQAABWD52rp436780ox+sbKe09HDCP6t2VxZAAAFYHh5d7TG1j69epiSsAm+tvjS1d8l5NoAAArAsXKL6i1n/uY0pWLDSnV09cda/f3UzZQEEEIDt68nVZab2t6q/URJWkY9U753a66q/mj4CCCAA28GVqsfN+k+rzlAWVpk/r349tW9R3U9JAAEEYPt4dnXRqX1k9Y9Kwir0jepVs/6h1cWUBRBAALat67X0gLanVOuVhVXqOS3u7LZ7S3fIAhBAALaBF1c7TO0PTxesVr9o6WYLT6iuqSyAAAKwbdy9utvUPqs6WElYA95cfWFq79xYkA4ggABsZRu+8HpL9Z/KwhpwdvWYFqca3r36XWUBBBCAretxLU49+UXmwrO2HNE4oHDBX1UXURZAAAHYOi7f0nnwz69+rCysMU+uTpraezS26QUQQAC2ghdWF5/a36heoSSsQSdUz5z1D6mupiyAAAKwZd28euis/4QWD2eDtebV1VFT+6LCOCCAAGz5x6ZXVuum/vurDygLa9hZ1aMbC9Or7jldAAIIwBbw8Gqfqf2r6rFKAn22esOs/6pqV2UBBBCAC+bSjbUfCw6t/ltZoKqnNNaEVF2lepaSAAIIwAXz/CmE1Fh4/kIlgf/xs+qJs/7jqhspCyCAAJw/+1aPnPUPakzBAha9vfro1L5wY1rWDsoCCCAA582Fq9fPHpfeUX1EWeB/WV89qjpt6t+kMRICIIAAnAd/Vu09tU+a+sDGfbN6zqz/nJwNAgggAJvt6i09aO0vqh8pC5yjl1ZfmtoXa0zFWqcsgAACcM7WVa9rHK5W9bmpD5yzMxprps6a+nes/khZAAEE4Jw9orrT1D6zMbf9bGWBzfK56iWz/ourPZQFEEAANm73xjSSBS+rjlIWOE+eWX1lau9WvTlTsQABBOB/WdeYs77b1D+2petAgM3z6+r3GyOIVbernqAsgAACsNSjqv2n9lnVw3LmB5xfR1YvmPVfUF1fWQABBGC4VmOu+oKXNOayA+ff86rPT+2dq7+bPgIIIMCatmPjJOeLTf0vVc9QFrjAzqgeXJ069W8whRIAAQRY055e3XRq/6p6UHW6ssAW8fXqSbP+E6s7KwsggABr1e2qp876h1RfVhbYol5XvX9qr6v+T3UFZQEEEGCtuUxjTvoOU//fqr9WFtji1ld/WB039S/XmPa4g9IAAgiwVqyr3lpdcer/qLFt6Hqlga3i+OqhLR7qeYeWjj4CCCDAqvbE6u5T+6zGQtkfKwtsVR+pDp31n1ndRlkAAQRY7W5TvXDWf2H1UWWBbeKZ1RFTe4fGNMjLKAsggACr1RWqf2xx7vnHcto5bEtnVPevfjr1r9yYDrlOaQABBFhtdprCx+Wn/g+mF0JnKQ1sU9+pHtLimqu7V3+uLIAAAqw2f1XdemqfXt23sTAW2Pb+paXrQV5Q3V5ZAAEEWC0eUR006z+x+oyywHb1tOoTU3uHxgjllZUFEECAlW6/6tWz/puqVykLbHdnVfervj/1L1u9uzFdEkAAAVaka1Tvmb2g+Y+WjoQA29ePq/s0pkVW3ax6rbIAAgiwEl2iOqzxrmqNd1kPnL3QAZaHI6rHzPoPrx6rLIAAAqwkO07hY6+pf2p1t8aJ58Dy8/rG9MgFL2uclg4ggADL3rrGmo+FFy9nVQ+ojlEaWNYOqj41tXeo3tmYRgkggADL2guqR876j63epyyw7J1e3btxTkjVpat/rS6lNIAAAixXj64OmfVfUr1GWWDFOKG6R3XK1L9GdsYCBBBgmTqweuWs/3fVwcoCK84x1QMb0ydrTKd8nbIAAgiwnOxfvaMxb7zq8MZOOuuVBlak91WPn/Uf1tLRTQABBNhu9mvpWR+fz3a7sBq8qqVngrxgCiIAAgiw3dyk+kB10an/5eru1c+VBlaFx7S4icS66g3VPZUFEECA7eFG1YcbBw5WfbO6S2MRK7A6LGyj/dmpv0NjuuXNlAYQQIBtae8pfCxsz/nd6s7VD5QGVp1TGztjfX3qX7R6f4sHjQIIIMBWdcMpfFx66n+7um31X0oDq9YJ1W9X35/6l6n+pbqq0gACCLA13bT6aHXZqf9f1e2mEAKsbt+v7lb9ZOpfufpIdQWlAQQQYGu4VWPk4zem/jem8PEdpYE145jGRhO/nPrXmB4XLqs0gAACbEl3rD7Y4oLzr1W3r76nNLDmfLa6V3Xa1N+zpWvCAAQQ4AK5b2Or3YtN/a9O4cOCc1i7Dp8eGxbO+9m7+lB1SaUBBBDggjio+vsWDxk8pjHt6jilgTXv/Y0tehdCyD6NNSFGQgABBDjP1lXPrl7d2Pe/6tON3a5+rDzA5LDqQY3zQmocTvqRFteKAQggwLnaqXpb9YzZvfc3zvn4mfIAG3h39cBZCLnxFEIupzSAAAKcm0s1Fps/ZHbvLdUBjcPIADbmndX9W5yOdaPqE9UVlQYQQIBNuWb1mcYC86r11TOrh1dnKg9wLt5d3WcWQq7TmLq5h9IAAgiwoTtWR0wvGJpeQPx+9RylAc6D91W/2+IWvXtMIeT6SgMIIMCCP63+tcVFoydW+1d/qzTA+fDB6i7Vz6f+FatPVrdRGkAAgbXtIo3F5q+sLjzd+0p188bcbYDz65ON6ZwLu+Zdqvq3xnoyAAEE1qA9Gus9Hjq794HqFtW3lAfYAo5qjHp8Z+pfpHpX9SdKAwggsLbcvfp8Y5eaGovNn1fds/ql8gBb0Ncbb2wcPfV3qF5VvazFM4YAAQRYpXasDq3+ubr0dO+kxoLRp1dnKxGwFRxX3br68OzeExq7Zl1MeQABBFan3Rtzsg9unHJe9eVq3ymQAGxNv2yMvr5tdu9e1aeqqygPCCDA6nL/xvSHm8/uvb66WfUN5QG2kTOqP6ie2pj6WWMq6Beq/ZQHBBBg5bt4493Gd1SXnO6dXD24+uOcbA5sH39Z/V51ytS/XHV49QilAQEEWLluW/1nS3e5OrLap/o75QG2s8Omx6nvTv2dqjdM10WUBwQQYOW4aPXyxruJe0z3zq5e2NiJ5mtKBCwTC2+KfGR27xGNk9OvpjwggADL336NUY/Hzf4tf6e6Q/WUxvxrgOXkhMap6S9ocV3ITRrrQn5HeUAAAZani1evbuxydc3p3vrqTdUNcqo5sLydVf1FY1esk6Z7l67e1zgvZGclAgEEWD7uVR1bHTT79/uD6m6NqQy/UCJghXhfY2vwL039dY3zQj5dXUN5QAABtq+rVe+t3lNdabq3vnpjdf3qg0oErEDfaKxXe/vs3j7VF6uHKw8IIMC2t1P1tMaoxz1n979e3b56ZItTGABWolOrh1R/2Ng6vGq3xrTS91SXUSIQQIBt44DqK9Vzq12me6dXz6v2zloPYHV5c2NB+pGze/eqjpk+AgIIsJVcr7Gt7mEtnQf94Wqv6unVr5QJWIW+Xt2yOrSxWL3q8o2RkH+a2oAAAmwhV6heVx3dmF614LvV/ar9pydngNXs9OqQ6nbVt2b3D6z+X2Oq1jplAgEEOP8u0ZhW9Y3qj6sLT/dPq55f7Vm9U5mANebTjemmr23xzJBLNjbf+Gh2ygIBBDjPdqn+rPpmY0/8i03311fvqK7TWIB+slIBa9QpjW3Hb1t9dXb/9o3tew9u8U0bQAABNuEi1WMbUwte2tIdXj7e2JLygY2pVwDUpxqjIc9ocQ3cLo21Ikc1pmsBAgiwgYtNweMb1Ssaaz4WfLm6e+Ndvc8qFcD/cnpjV8C9q4/N7l9/6v9DtbsygQAC1KWrZ1bfnoLHlWef+3pj//u9q39RKoBz9fXqt6uHVSfO7t+vxa3Ld1UmEEBgLdq9enn1nepZLZ1q9d/Tk+eejROAz1YugM22vnprdd3G+SELj6G7NtbOfb1xUKv1ISCAwJqwZ/W2xuLyx7W4uLzG9KuHV9eenjzPVC6A8+3Exra8+zTWiSy4QvX6xrbm9862vSCAwCq0Q+Pk8g82Tu19aLXj7PPHVA9ovFv3luoMJQPYYo5q7JT1wMZ01wXXq95dfa66izKBAAKrwRUaJ5N/u3Fy+Z1b+k7bx6rfaazx+IcWT/YFYMta2ML82o0tzufrQ/ap/rUxSnJnpQIBBFaadY3dqt7ZWN/xnJYuLD9jChv7VHeoPtDiIVoAbF2nV39VXbN6QUvPUrpVY6T6s9U9MzULBBBY5q5QPaGxy8rh1X1aOs3qB43F5ldrTLc6UskAtpuTGoe8Xr1x5tJps8/tW723sUbk4dXOygUCCCwXu1YPagzdf696WWMdx4L1Uxj5vSl4PLv6obIBLBsnVE+agsgrqlNnn9urelPj4NdnVb+pXCCAwPawQ7V/9bfVcY1tcu8y3V9w0vREdt3GfvT/lB2tAJazH1WPr/ZoTM36+exzl2uc1/Sdxra+N1AuEEBgW/xbuEVjhOO71b9VD27pYVbrq082zu+48vRE9jWlA1hRjm9MzbpqdUhLR613nh7jj64+Ut2rpVNtgS3AAT2sZTs3FpMfUN2jscZjY77dGA15W/UtZQNYFX5eHdpYsP6AxptKN5x9/ren6/jq7xpbqB+jbHDBGQFhrbl4df/GLlXHN9Z2/NFGwsfx1asbO6ZcvXqG8AGwKp3eeIPpRlPgOKylU2ov19iA5EvVEdNzxiWUDc4/IyCsBbs3zuK4R2Nb3J028XU/aeyK8q7qwzmzA2CtOXy6rlT9cfWIlr5BdbPpevkUVN42fb3nCxBAWOMuVN10ChwLhwBuynFT6Pin6uNZSA7A2Fb9GdVzq7tVfzh9XNiMZJfGDokPqn48PYf8Y/Xp6mzlAwGEtWHX6k5T4Lh757yV4tHV+6v3VV/wZAHAJpzReJPqvdUVq4dM156zr/nN6qDpOq76v9V7qk80pncBG1i3fr0Dmtk6DjzggK36u9vYJnH/xha5t2rTU6t+3Rjd+OcpeHzHTweAC+BGUxC53xRMNubnjXWG760+VP10a/1lDnvPe/xEWFGMgLCSXLYxynGnKXRc/hy+9oQpbHygsaXuycoHwBZy1HQ9qbp1dZ/q3hs8L12isenJ/RtrRD43BZIPVl/MuhEEEFiWLlLdsrrjdN2kTe/ctr768hQ6/rn6bKZWAbB1nd2YavWJ6nGN0fgDqns2DjxcsEPjrKlbVM+pftYYmf9Y9dHqWKVEAIHt9/u4T2MbxNtX+00hZFN+2tit6oPT9SMlBGA7OWsWRh5f7TUFkbtV+27wmutSU1BZmKv8o8bBhx+dru8pJwIIbB0Xmh6gbz+FjttWu53Lg/t8CPvIjHIAsDwdM13Pb0zHul1jCvH+1TU3+NrLVw+erqqvzcLIxxojJiCAwPmwQ2NL3NtMD8S3qi59Dl+/MK3qY4191j/eWNQHACvJz1vcTavqao2pxfs33oD7jQ2+/trTdVDjzbcvTs+Fn2xs9eu5EAEEzuH3a5/GAr3bToHj3E6PPXYKGh+fHmxPVEYAVplvV2+crgs1dtVaWO+4X+OckQU7NM62uml18BRIvjSFkX+vPtM4twRWjBWxDe9W3s6VLWe3xgmxt5xCx80b53Ock2+2OLrx8cYe6gCwVl1kCiF3bIyO3LjFAxA35b+mIPIfjanKRzfOMGGZWutbJxsB4YLYfXqQvEVjdOMGm/Eg+e3GyMbC9X1lBID/8asW13/UWLB+m8Ybe7dq7Ai54eu3q0/Xg2d/xlFTGFm4vqm0CCCsNAvrN+aB4yqb8X3frj7VGN04fOoDAJvnZy1dP3KxxmyDW02h5BbTvbmLtLjt74KfzMLIF6aAYuoWAgjLym6NKVS3akypulnnvENVjXmp/9kYBv50Y26qBzcA2HJOabyhd/jstdyNpufqfafn69/ayPddurrrdC340fS8feTs438rMQII28rVpwet/abQcf3OfTrVLxsH/v37FDg+O90DALaNM6vPT9eCy0zP6fvOQsmlNvK9l6/uMl0LTmrsunVUYy3Jl6r/V52u1AggXBAXa8whXRievdn0IHRuftAY3fjU9PHo6YEPAFg+Tqw+MF1V6xpnj+zbWNR+48aoycU38r2XrO4wXQvOqL46hZH59UOlRgBhU67RmE61EDb23oyf/dmNLXEXplL9e4ZlAWAlWl99fbrevkEoufEG18ZGSnZsHBy8V/WgDYLO0dVXpuuY6bWDc0oQQNaYXRtnb+zXeKfjFtVlN+P7TqqOaGzhd0RjOpUHEABY/aHkH2b396hu2NjZcu/p49WnwLKhyzS2Cv7tDe5/ZwoiX56ur0z905QdAWR1uNYUMvadQsfmrN1YGN34j1no+Or0YAQArF3/PV3zgyou3hj9WAgkN6z2bNNnfV11uu66wWuPb0+B5P9N17HT6w/rRwUQlrGLNU5C3W8WOjZndOOnjW33/qOxduPzGd0AADbPL1qcjr1gXWO05PpTGLnB9PHa1U4b+TMu1OJ5Jffc4HPfnoLIV6aPx05tr1UEELaDqze21bvF9PH6bf7ajc80RjeOyOgGALBlrW+cwP5f1ftm93dszM64fmPU5LpT++rn8BrmatN1lw3u/6CloyULU7l+ovwCCFvGLo21G7ecrptXl9uM7/tpY2Tjs7OPhjIBgO3hjBYXpf/j7P5OUzDZs7reFEyuN93bcRN/1pWm644b3D9hFka+MgWUL0/3EUA4B1dt6ejG5uxMddb0D2xh3cZ/VN/I6AYAsLyd3uKi9LkdG7t1Xm+69qyuM107b+LPumx1u+maO7HFNSZfbswAOUYwEUDWcp33rm49hY1bVVfYjO87oTGicURjStUXMroBAKweZ7Q4zeqfZvd3aJzovhBIFkZOrtOYNbIxl9lEMPnJFES+ukFAOV75BZDVZLfGyMZ+03XzxgLyczJfu/GZxujG15USAFiDzmpxm+C5CzXWiyyMllx3Fkx228SfdelzCCYLgWThHJMvVT9TfgFkJbhcY3TjNtO1V+e+Fe4pjdGNT7c4ncpuDwAAm3Z2i4vf37/B567W4mjJfNTkEucQTG47XXPfn4WRY1ocPTld+QWQ7elK0y/rQui4bhs/oGfuu43t6xa2wj26OlMpAQC2iG9P1wc38rrtuo03iPecPl6vTZ9jcuXpmp9jcsYUQo6u/nO6jmpsBoQAslVcubpDdfspdPzWZqTzL1WfmgLHJxtbyQEAsG39YLo+Mru3qXNMrtPGd+XacQoue1UPnt3/7hRGvjgFkv+c7iGAnGcLuyv89hQ6rnUuX39mdeQUND7ZmFZ1kjICACxLm3OOyQ0aIyV7TWHlQhv5c3afrvnhij9pbBz0+enj56rjlHyW/tavX/47uB54wAFb+z+x2waBY6/OeUrVr6dfpk80Rjk+U53s1wkAYFXarbrhdN2ouvEUTnbczO///iyULFwnbcv/gcPe855lU8y1OgJyoeom1f7TdctzqcUpja1wPzmFjs9Vp/m3CACwJvyy8abzp2b3dmqMlNxkFk72buM7ny6sK7nX1F/fWFPymRan7K+Z3U/XUgC5UnWn6i6N9RyXPYevPX36RfhY9dHGblVn+LcHAMDs9eIXp2vBDo0pXDdsjJLcqNqn/70T17rGwvjrVn843TuhsWHRwg6pRzZm3QggK8iFGudv/M507XUOX3t2Y+HQR6vDpyR6qn9XAACcB2e1eLDiO2Zh4zrVvtN1s8b6kg2nb122MUJyr6l/WmOEZOEN8S+0SnZQXW0BZLfGlKp7VHfrnEc5flB9uLFV2+FT6gQAgC1p/SyUvG26t0tjdOQW1a0aB1dv+Lp1l8b65N+unlf9orEU4PDpOmb6swWQ7WD36ncboxy3a8zH25RTq483tmE7ZnZ/b/82tigniK4MJ63UB64V7PTGmjLw75PVbrfstnpuFkLJm6f+tacgsqlAcvHGm+z3mPrHT0HkA9W/tYLeTF+pvxhXq36vundjGGvdZn7fRRsjI3fzOw8AwAp2uer+03V2Y83IB6p/bum6FAHkArjGFDju09htAAAAGGufbzpdz2ochvi+xujKUQLI+XPj6qDqqo3pPR/xe7ZdXbLNH3ViebpotbMybHUX65ynhbI2XLyxMw6sZmfkTLTlZLfqQdV9q0Ord1XfWy5/uRVxECEAALA6XEgJAAAAAQQAABBAAAAABBAAAEAAAQAAEEAAAAABBAAAEEAAAAAEEAAAQAABAAAQQAAAAAEEAAAQQAAAAAQQAABAAAEAABBAAAAAAQQAABBAAAAABBAAAEAAAQAAEEAAAAABBAAAEEAAAAAEEAAAQAABAAAQQAAAAAEEAAAQQAAAAAQQAABAAAEAABBAAAAAAQQAAEAAAQAABBAAAEAAAQAAEEAAAAABBAAAQAABAAAEEAAAQAABAAAQQAAAAAEEAABAAAEAAAQQAABAAAEAABBAAAAAAQQAAEAAAQAABBAAAEAAAQAAEEAAAAABBAAAQAABAAAEEAAAQAABAAAQQAAAAAEEAABAAAEAAAQQAAAAAQQAABBAAAAAAQQAAEAAAQAABBAAAAABBAAAEEAAAAABBAAAQAABAAAEEAAAAAEEAAAQQAAAAAEEAABAAAEAAAQQAAAAAQQAABBAAAAAAQQAAEAAAQAABBAAAAABBAAAEEAAAAABBAAAQAABAAAEEAAAAAEEAAAQQAAAAAFECQAAAAEEAAAQQAAAAAQQAABAAAEAABBAAAAAAQQAABBAAAAABBAAAEAAAQAAEEAAAAABBAAAEEAAAAAEEAAAQAABAAAQQAAAAAEEAAAQQAAAAAQQAABAAAEAABBAAAAAAQQAABBAAAAABBAAAEAAAQAAEEAAAAABBAAAEEAAAAAEEAAAQAABAAAQQAAAAAEEAABAAAEAAAQQAABAAAEAABBAAAAAAQQAAEAAAQAABBAAAEAAAQAAEEAAAAABBAAAQAABAAAEEAAAQAABAAAQQAAAAAEEAABAAAEAAAQQAABAAAEAABBAAAAAAQQAAEAAAQAABBAAAEAAAQAAEEAAAAABBAAAQAABAAAEEAAAAAEEAAAQQAAAAAEEAABAAAEAAAQQAAAAAQQAABBAAAAAAQQAAEAAAQAABBAAAAABBAAAEEAAAAABBAAAQAABAAAEEAAAAAEEAAAQQAAAAAEEAABAAAEAAAQQAAAAAQQAABBAAAAAAQQAAEAAAQAABBAAAAABBAAAEEAAAAABRAkAAAABBAAAEEAAAAAEEAAAQAABAAAQQAAAAAEEAAAQQAAAAAQQAABAAAEAABBAAAAAAQQAABBAAAAABBAAAEAAAQAAEEAAAAABBAAAEEAAAAAEEAAAQAABAAAQQAAAAAEEAAAQQAAAAAQQAABAAAEAABBAAAAAAQQAABBAAAAABBAAAEAAAQAAEEAAAAABBAAAQAABAAC2rf8/ALoq+VuLq6jWAAAAAElFTkSuQmCC;" vertex="1" parent="1">
          <mxGeometry x="1243.33" y="400" width="93.34" height="70" as="geometry" />
        </mxCell>
        <mxCell id="xQ31_4lAjrQs9WSGZhHq-51" style="edgeStyle=orthogonalEdgeStyle;rounded=0;orthogonalLoop=1;jettySize=auto;html=1;entryX=0.5;entryY=0;entryDx=0;entryDy=0;endArrow=classic;endFill=1;strokeWidth=2;fontSize=20;fontColor=#000000;strokeColor=#FF0000;" edge="1" parent="1" source="xQ31_4lAjrQs9WSGZhHq-45" target="xQ31_4lAjrQs9WSGZhHq-50">
          <mxGeometry relative="1" as="geometry" />
        </mxCell>
        <mxCell id="xQ31_4lAjrQs9WSGZhHq-45" value="" style="rounded=1;whiteSpace=wrap;html=1;fillColor=none;fontSize=20;dashed=1;strokeWidth=2;strokeColor=#FF0000;" vertex="1" parent="1">
          <mxGeometry x="1220" y="380" width="330" height="120" as="geometry" />
        </mxCell>
        <mxCell id="xQ31_4lAjrQs9WSGZhHq-27" value="$${\sigma}&#39;$$" style="text;html=1;align=center;verticalAlign=middle;resizable=0;points=[];autosize=1;fontSize=20;" vertex="1" parent="1">
          <mxGeometry x="1623.33" y="290" width="140" height="30" as="geometry" />
        </mxCell>
        <mxCell id="xQ31_4lAjrQs9WSGZhHq-11" style="edgeStyle=orthogonalEdgeStyle;rounded=0;orthogonalLoop=1;jettySize=auto;html=1;exitX=1;exitY=0.5;exitDx=0;exitDy=0;entryX=0;entryY=0.5;entryDx=0;entryDy=0;fontSize=20;" edge="1" parent="1" source="xQ31_4lAjrQs9WSGZhHq-6" target="xQ31_4lAjrQs9WSGZhHq-10">
          <mxGeometry relative="1" as="geometry" />
        </mxCell>
        <mxCell id="xQ31_4lAjrQs9WSGZhHq-31" style="edgeStyle=orthogonalEdgeStyle;rounded=0;orthogonalLoop=1;jettySize=auto;html=1;exitX=1;exitY=0.5;exitDx=0;exitDy=0;entryX=0;entryY=0.75;entryDx=0;entryDy=0;fontSize=20;" edge="1" parent="1" source="xQ31_4lAjrQs9WSGZhHq-6" target="xQ31_4lAjrQs9WSGZhHq-29">
          <mxGeometry relative="1" as="geometry">
            <Array as="points">
              <mxPoint x="540" y="280" />
              <mxPoint x="540" y="460" />
            </Array>
          </mxGeometry>
        </mxCell>
        <mxCell id="xQ31_4lAjrQs9WSGZhHq-6" value="" style="ellipse;whiteSpace=wrap;html=1;aspect=fixed;fillColor=none;fontSize=20;" vertex="1" parent="1">
          <mxGeometry x="400" y="230" width="100" height="100" as="geometry" />
        </mxCell>
        <mxCell id="xQ31_4lAjrQs9WSGZhHq-3" style="edgeStyle=orthogonalEdgeStyle;rounded=0;orthogonalLoop=1;jettySize=auto;html=1;entryX=0;entryY=0.5;entryDx=0;entryDy=0;fontSize=20;" edge="1" parent="1" source="xQ31_4lAjrQs9WSGZhHq-1" target="xQ31_4lAjrQs9WSGZhHq-2">
          <mxGeometry relative="1" as="geometry" />
        </mxCell>
        <mxCell id="xQ31_4lAjrQs9WSGZhHq-1" value="&lt;font face=&quot;Play&quot; style=&quot;font-size: 20px;&quot;&gt;Image&lt;/font&gt;" style="ellipse;whiteSpace=wrap;html=1;aspect=fixed;fillColor=none;fontSize=20;" vertex="1" parent="1">
          <mxGeometry x="20" y="230" width="100" height="100" as="geometry" />
        </mxCell>
        <mxCell id="xQ31_4lAjrQs9WSGZhHq-9" style="edgeStyle=orthogonalEdgeStyle;rounded=0;orthogonalLoop=1;jettySize=auto;html=1;exitX=1;exitY=0.5;exitDx=0;exitDy=0;entryX=0;entryY=0.5;entryDx=0;entryDy=0;fontSize=20;" edge="1" parent="1" source="xQ31_4lAjrQs9WSGZhHq-2" target="xQ31_4lAjrQs9WSGZhHq-6">
          <mxGeometry relative="1" as="geometry" />
        </mxCell>
        <mxCell id="xQ31_4lAjrQs9WSGZhHq-2" value="Encode" style="rounded=0;whiteSpace=wrap;html=1;fillColor=none;fontSize=20;" vertex="1" parent="1">
          <mxGeometry x="200" y="240" width="120" height="80" as="geometry" />
        </mxCell>
        <mxCell id="xQ31_4lAjrQs9WSGZhHq-5" value="" style="shape=image;verticalLabelPosition=bottom;labelBackgroundColor=#ffffff;verticalAlign=top;aspect=fixed;imageAspect=0;image=data:image/png,iVBORw0KGgoAAAANSUhEUgAAAyAAAAJYCAYAAACadoJwAAAACXBIWXMAAAsTAAALEwEAmpwYAAAKT2lDQ1BQaG90b3Nob3AgSUNDIHByb2ZpbGUAAHjanVNnVFPpFj333vRCS4iAlEtvUhUIIFJCi4AUkSYqIQkQSoghodkVUcERRUUEG8igiAOOjoCMFVEsDIoK2AfkIaKOg6OIisr74Xuja9a89+bN/rXXPues852zzwfACAyWSDNRNYAMqUIeEeCDx8TG4eQuQIEKJHAAEAizZCFz/SMBAPh+PDwrIsAHvgABeNMLCADATZvAMByH/w/qQplcAYCEAcB0kThLCIAUAEB6jkKmAEBGAYCdmCZTAKAEAGDLY2LjAFAtAGAnf+bTAICd+Jl7AQBblCEVAaCRACATZYhEAGg7AKzPVopFAFgwABRmS8Q5ANgtADBJV2ZIALC3AMDOEAuyAAgMADBRiIUpAAR7AGDIIyN4AISZABRG8lc88SuuEOcqAAB4mbI8uSQ5RYFbCC1xB1dXLh4ozkkXKxQ2YQJhmkAuwnmZGTKBNA/g88wAAKCRFRHgg/P9eM4Ors7ONo62Dl8t6r8G/yJiYuP+5c+rcEAAAOF0ftH+LC+zGoA7BoBt/qIl7gRoXgugdfeLZrIPQLUAoOnaV/Nw+H48PEWhkLnZ2eXk5NhKxEJbYcpXff5nwl/AV/1s+X48/Pf14L7iJIEyXYFHBPjgwsz0TKUcz5IJhGLc5o9H/LcL//wd0yLESWK5WCoU41EScY5EmozzMqUiiUKSKcUl0v9k4t8s+wM+3zUAsGo+AXuRLahdYwP2SycQWHTA4vcAAPK7b8HUKAgDgGiD4c93/+8//UegJQCAZkmScQAAXkQkLlTKsz/HCAAARKCBKrBBG/TBGCzABhzBBdzBC/xgNoRCJMTCQhBCCmSAHHJgKayCQiiGzbAdKmAv1EAdNMBRaIaTcA4uwlW4Dj1wD/phCJ7BKLyBCQRByAgTYSHaiAFiilgjjggXmYX4IcFIBBKLJCDJiBRRIkuRNUgxUopUIFVIHfI9cgI5h1xGupE7yAAygvyGvEcxlIGyUT3UDLVDuag3GoRGogvQZHQxmo8WoJvQcrQaPYw2oefQq2gP2o8+Q8cwwOgYBzPEbDAuxsNCsTgsCZNjy7EirAyrxhqwVqwDu4n1Y8+xdwQSgUXACTYEd0IgYR5BSFhMWE7YSKggHCQ0EdoJNwkDhFHCJyKTqEu0JroR+cQYYjIxh1hILCPWEo8TLxB7iEPENyQSiUMyJ7mQAkmxpFTSEtJG0m5SI+ksqZs0SBojk8naZGuyBzmULCAryIXkneTD5DPkG+Qh8lsKnWJAcaT4U+IoUspqShnlEOU05QZlmDJBVaOaUt2ooVQRNY9aQq2htlKvUYeoEzR1mjnNgxZJS6WtopXTGmgXaPdpr+h0uhHdlR5Ol9BX0svpR+iX6AP0dwwNhhWDx4hnKBmbGAcYZxl3GK+YTKYZ04sZx1QwNzHrmOeZD5lvVVgqtip8FZHKCpVKlSaVGyovVKmqpqreqgtV81XLVI+pXlN9rkZVM1PjqQnUlqtVqp1Q61MbU2epO6iHqmeob1Q/pH5Z/YkGWcNMw09DpFGgsV/jvMYgC2MZs3gsIWsNq4Z1gTXEJrHN2Xx2KruY/R27iz2qqaE5QzNKM1ezUvOUZj8H45hx+Jx0TgnnKKeX836K3hTvKeIpG6Y0TLkxZVxrqpaXllirSKtRq0frvTau7aedpr1Fu1n7gQ5Bx0onXCdHZ4/OBZ3nU9lT3acKpxZNPTr1ri6qa6UbobtEd79up+6Ynr5egJ5Mb6feeb3n+hx9L/1U/W36p/VHDFgGswwkBtsMzhg8xTVxbzwdL8fb8VFDXcNAQ6VhlWGX4YSRudE8o9VGjUYPjGnGXOMk423GbcajJgYmISZLTepN7ppSTbmmKaY7TDtMx83MzaLN1pk1mz0x1zLnm+eb15vft2BaeFostqi2uGVJsuRaplnutrxuhVo5WaVYVVpds0atna0l1rutu6cRp7lOk06rntZnw7Dxtsm2qbcZsOXYBtuutm22fWFnYhdnt8Wuw+6TvZN9un2N/T0HDYfZDqsdWh1+c7RyFDpWOt6azpzuP33F9JbpL2dYzxDP2DPjthPLKcRpnVOb00dnF2e5c4PziIuJS4LLLpc+Lpsbxt3IveRKdPVxXeF60vWdm7Obwu2o26/uNu5p7ofcn8w0nymeWTNz0MPIQ+BR5dE/C5+VMGvfrH5PQ0+BZ7XnIy9jL5FXrdewt6V3qvdh7xc+9j5yn+M+4zw33jLeWV/MN8C3yLfLT8Nvnl+F30N/I/9k/3r/0QCngCUBZwOJgUGBWwL7+Hp8Ib+OPzrbZfay2e1BjKC5QRVBj4KtguXBrSFoyOyQrSH355jOkc5pDoVQfujW0Adh5mGLw34MJ4WHhVeGP45wiFga0TGXNXfR3ENz30T6RJZE3ptnMU85ry1KNSo+qi5qPNo3ujS6P8YuZlnM1VidWElsSxw5LiquNm5svt/87fOH4p3iC+N7F5gvyF1weaHOwvSFpxapLhIsOpZATIhOOJTwQRAqqBaMJfITdyWOCnnCHcJnIi/RNtGI2ENcKh5O8kgqTXqS7JG8NXkkxTOlLOW5hCepkLxMDUzdmzqeFpp2IG0yPTq9MYOSkZBxQqohTZO2Z+pn5mZ2y6xlhbL+xW6Lty8elQfJa7OQrAVZLQq2QqboVFoo1yoHsmdlV2a/zYnKOZarnivN7cyzytuQN5zvn//tEsIS4ZK2pYZLVy0dWOa9rGo5sjxxedsK4xUFK4ZWBqw8uIq2Km3VT6vtV5eufr0mek1rgV7ByoLBtQFr6wtVCuWFfevc1+1dT1gvWd+1YfqGnRs+FYmKrhTbF5cVf9go3HjlG4dvyr+Z3JS0qavEuWTPZtJm6ebeLZ5bDpaql+aXDm4N2dq0Dd9WtO319kXbL5fNKNu7g7ZDuaO/PLi8ZafJzs07P1SkVPRU+lQ27tLdtWHX+G7R7ht7vPY07NXbW7z3/T7JvttVAVVN1WbVZftJ+7P3P66Jqun4lvttXa1ObXHtxwPSA/0HIw6217nU1R3SPVRSj9Yr60cOxx++/p3vdy0NNg1VjZzG4iNwRHnk6fcJ3/ceDTradox7rOEH0x92HWcdL2pCmvKaRptTmvtbYlu6T8w+0dbq3nr8R9sfD5w0PFl5SvNUyWna6YLTk2fyz4ydlZ19fi753GDborZ752PO32oPb++6EHTh0kX/i+c7vDvOXPK4dPKy2+UTV7hXmq86X23qdOo8/pPTT8e7nLuarrlca7nuer21e2b36RueN87d9L158Rb/1tWeOT3dvfN6b/fF9/XfFt1+cif9zsu72Xcn7q28T7xf9EDtQdlD3YfVP1v+3Njv3H9qwHeg89HcR/cGhYPP/pH1jw9DBY+Zj8uGDYbrnjg+OTniP3L96fynQ89kzyaeF/6i/suuFxYvfvjV69fO0ZjRoZfyl5O/bXyl/erA6xmv28bCxh6+yXgzMV70VvvtwXfcdx3vo98PT+R8IH8o/2j5sfVT0Kf7kxmTk/8EA5jz/GMzLdsAAAAgY0hSTQAAeiUAAICDAAD5/wAAgOkAAHUwAADqYAAAOpgAABdvkl/FRgAALWVJREFUeNrs3XeYpmV99+HPioAoWGKJFcXYEbEgFuxRbNEIxl4SjSZKYosG0dhbxBaNNXbfmJiowVejibFgjcGCBFFea2JHARWVorR9/7juydyz2YUFtkw5z+O4j7mue2aW5Tezz/N8n6utW79+fQAAANvChZQAAAAQQAAAAAEEAABAAAEAAAQQAAAAAQQAABBAAAAAAQQAAEAAAQAABBAAAAABBAAAEEAAAAABBAAAQAABAAAEEAAAAAEEAAAQQAAAAAEEAABAAAEAAAQQAAAAAQQAABBAAAAAAQQAAEAAAQAABBAAAAABBAAAEEAAAAABBAAAQAABAAAEEAAAAAEEAAAQQAAAAAQQAABAAAEAAAQQAAAAAQQAABBAAAAABBAAAEAAAQAABBAAAAABBAAAEEAAAAAEEAAAQAABAAAEEAAAAAEEAAAQQAAAAAQQAABAAAEAAAQQAAAAAQQAABBAAAAABBAAAEAAAQAABBAAAAABBAAAEEAAAAAEEAAAQAABAAAQQAAAAAEEAAAQQAAAAAQQAABAAAEAABBAAAAAAQQAABBAAAAABBAAAEAAAQAAEEAAAAABBAAAEEAAAAAEEAAAQAABAAAQQAAAAAEEAAAQQAAAAAQQAABAAAEAABBAAAAAAQQAABBAAAAABBAAAEAAAQAAEEAAAAABBAAAEECUAAAAEEAAAAABBAAAQAABAAAEEAAAAAEEAAAQQAAAAAEEAABAAAEAAAQQAAAAAQQAABBAAAAAAQQAAEAAAQAABBAAAAABBAAAEEAAAAABBAAAQAABAAAEEAAAAAEEAAAQQAAAAAEEAABAAAEAAAQQAAAAAQQAABBAAAAAAQQAAEAAAQAABBAAAAABBAAAEEAAAAAEEAAAQAABAABWqQsrAcDKdOABB2ytP3rP6mbVTab2VaorVL+qTqpOrI6tvlZ9pvqP6nQ/Edg+DnvPexQBAQSAFWXH6i7VgdX+1RU38XW7VJeq9qhuOrt/avWJ6u+qw6rTlBQAAQSADV23Oqh6QHXpC/DnXLS663T9vHp79aLqu0oMgAACwB2rJ1Z3rtZt5PM/qz5VHVEdXX2j+mG1c3XJxnSs61Q3qm5bXX/2vZeo/qT6oymIPG36XgAQQADWmFtXf1ntt5HP/bD6++q9jTUdZ23ka06pflr9V/Xvs/tXqR5Y/cEUTGpM63pYdZ/qudXLs04EgOyCBbAWXKV6d/XJDcLH2dX7Gus/dq/+vPr0JsLHOfledWhjStf+jfUgC3adPndktZcfBQACCMDqdeHGVKtjq3vP7p9ZvbG6XvW71b+dj9CxKR+ublfdvjpqdv/61eeqx7XxaV8ACCAArGDXbmyR+5LGKETV+uqdU/B4ZGMb3a3l49U+1WMaU7eqLtKYivXu2d8JAAEEgBVsXfWo6ost3Sr3y9Vtqvs1FpVvC2dXr2qcJ3Lk7P6BjTUkV/bjAhBAAFi5dq3+sXptY2vcGocHHlLduLG+Y3v4WnXL6pWzezdoLHa/jh8bgAACwMpzzca2ufeZ3TumMQpyaHXGdv77nV49tjE6s/B3uXJjqtbefnwAAggAK8cdGwu895z666tXVPs2pl4tJ3/TOLDwF1P/N6vDG+tFABBAAFjmHlx9oHFAYNVpjTM5Ht+YfrUcfbS6Q3Xi1P+N6l9mAQoAAQSAZejPq/9T7TT1v1fdqvqHFfB3P7IxcnPC1L9s9cHGeSQArGJOQmerOfCAAxQBtp7nV0/d4AX93arjV9D/w9HVnauPVZdorAn5aGPB+gl+xACrkxEQgJXnBRuEj481pjQdvwL/X45qnMR+6tS/RmMnr538mAEEEACWR/h4yqz/3sbIxy9W8P/TEdUDWjyN/fYt3bIXAAEEgO3gkA3Cxzure7d8F5ufF+/b4P/tjxqnqAMggACwHfxRY/RjwXurh7Q4arAavLh6y6z/kuoWfvQAAggA29Y9q9dU66b+v1X3bRzut9o8uvr81N6psaPXpf0KAAggAGwbN6veUe0w9T9VHbhKw0fVrxunuf9s6u9evXUWvgAQQADYSq5U/VN10an/zcaaj1NX+f/3d6o/aJzoXvU71RP8OgAIIABsPTtP4eNKU/8n1V1bO+djvK962az/gur6fi0ABBAAto6/aUy/qjHd6r6NEZC15KnVF2aB7O05HwRAAAFgizuo+v1Z/1HV4WuwDqdPdVjYZnjv6ll+PQAEEAC2nBtVL53139zSrWnXmmNbej7IwdmaF0AAAWCL2LWx49VFpv7ROYyv6hXVx6b2DtUbG1OyABBAALgAXlNde2r/vLHu41RlaX318OqUqX+96mnKAiCAAHD+PahxsvmCR1ZfV5b/8e3q6bP+wVMQAUAAAeA8unz117P+W6p3Kcv/8tctPSX99TmgEEAAAeA8e331G1P7uzl0b1POqh5RnTH196seqiwAAggAm++h1T2m9vrqYY31H2zcl1q6S9ih1SWVBUAAAeDcXbF6+az/ytbmeR/n1fMaI0VVv1k9W0kABBAAzt1Lq0tN7W9UhyjJZjmletKsf1B1Q2UBEEAA2LQ7Vvff4EX0acqy2d5VfWhqX7ili/gBEEAAmNm5evWs/47qI8pynj2uxQXpt67urSQAAggA/9ufV9ea2j+vnqgk58tXG+tmFrwoJ6QDCCAALLFH9dRZ/2nVccpyvj23+snUvnr1GCUBEEAAWPSKapepfWT1WiW5QE6qnrVBoLussgAIIADU3Vs88+Ps6tGNw/W4YF7XmI5VdYnqmUoCIIAArHUXael6hTdUn1eWLeLMlm7L+8ctrrEBQAABWJMOaaz/qDqx+gsl2aI+UH1sal+4+kslARBAANaqPaonz/pPaXHhNFvOk6v1U/vAaj8lARBAANai5zWmYFUdUb1JSbaKz1fvnvVfVK1TFgABBGAtuVH1gFn/iS2+S8+W9xctHk54y8ZICAACCMCacWiL78IfVn1GSbaqbzQW+C94XrWDsgAIIABrwR2rO03tM1t6ACFbz3Oqk6f2daoHKwmAAAKw2q2rXjjrv6H6mrJsEz+uXjbrP7PaUVkABBCA1eze1U2m9inVs5Vkm3pJdfzU3qP6QyUBEEAAVqt11dNn/Vc23pVn2/ll9YJZ/2nVLsoCIIAArEYHVDeYvRB+iZJsF39T/WBqX6l6lJIACCAAq8266hmz/qtz6OD28quWnoh+cEZBAAQQgFXmntXeU9vox/b3huq7U/vy1SOVBEAAAVgtNhz9eGVGP7a306vnz/oHVzsrC4AAArAa3LW68dQ+uforJVkW3lp9Z2pfqXq4kgAIIACrwcGz9huqE5VkWTi9pWeyPLnaSVkABBCAlezm1W1nL3hfpiTLypur70/tq1YPVRIAAQRgJXvyrP322YtdlofTW7oj1lOqCysLgAACsBJdp7H7VdXZ1YuUZFl6U/XDqX316kFKAiCAAKxET5o9nr6n+pqSLEu/bum2yE+tdlAWAAEEYCW5QvWQWd+5H8vb61vcHOBa1f2UBEAAAVhJDmpxR6Ujpovl65TqFbP+X3guBBBAAFaKXapHzfrO/VgZXlX9fGpfrzpASQAEEICV4MHVZab2d6vDlGRFOKl6zaz/9MYp9gAIIADL1rrq8bP+K6szlWXF+Kvq1Km9d3V3JQEQQACWs/0b03eqTq7eqCQrygmNBekLDlESAAEEYDl7wqz9lsa0HlaWlzQOKKzar7q1kgAIIADL0fUaIyA1Dh78ayVZkX4whccFT1ESAAEEYDl6bIuLlj9UfVNJVqwXt7h25y7VDZUEQAABWE4uWT1o1n+5kqxo36reNbXXZS0IgAACsMw8otp1ah/bGAFhZXthtX5q/151DSUBEEAAlstj5vzgwZfPXriycn2p+pepvUN1sJIACCAAy8E9qt+a2idWb1eSVeOFs/bvV1dUEgABBGB7+5NZ+43VaUqyanx6uqp2qv5MSQAEEIDt6XrVHaf2WdVrlWTV+ctZ+4+r31ASAAEEYHt5VItb776/+q6SrDr/Wh09tXet/lRJAAQQgO1h1+oPZv1XK8mqtL46dNZ/TIs7ngEggABsMw+tdpvaX60+oiSr1rsaZ4NUXaax7TIAAgjANjVffP6abL27mp3ZOB19wZ81FqUDIIAAbBO3ayxArzq5+lslWfXeVh03ta9SPVhJAAQQgG3loFn77dVJSrLq/apxyOSCgz1fAgggANvCFasDZv1XKcma8dpZ2Lx2daCSAAggAFvbH1cXntofr76iJGvGLzcInIcoCYAAArA17VQ9ctZ/jZKsOa+oTp3aN6nupCQAAgjA1nJAdYWp/YPqPUqy5pxYvWHWf4qSAAggAFvLfOvd1zW2Z2XteWl1+tS+fXUzJQEQQAC2tBtUt57ap1dvUpI163vV3836RkEABBCALW4++vFPLZ4Jwdp0aHX21L5ntaeSAAggAFvKJasHzvq23uVr1WFTe131ZCUBEEAAtpSHVrtO7aOqzygJ1V/O2g+orqYkAAIIwAW1rvrTWf/VSsLki9WHpvaFqycpCYAAAnBB7V9dc2r/tPp7JWHmBbP2w6vfVBIAAQTggpiPfry5Ok1JmPlEi1PydqkepyQAAgjA+XWN6m5T++zqtUrCRrxw1n50dQklARBAAM6PR80eE/+l+i8lYSPeXx0ztS9ZHaQkAAIIwHl1seoPZ31b77Ip61s6CvKE6qLKAiCAAJwXD2y8m131zRZ3O4KNeWf1ral92eqPlARAAAE4Lx4za7+68S43bMqZ1Utm/SdVOykLgAACsDluV+01tU+u3qokbIa3VsdN7StVD1MSAAEEYHPMFxH/fXWSkrAZflW9bNY/uHFAIQACCMAm7V4dMOtbfM558brqxKl99er+SgIggACck0e2+K71J1rcXhU2x8ktHQV5qudVAAEEYFN2apz9seA1SsL58JoWp+1dt7q3kgAIIAAbc//qMlP7u9VhSsL58PPqFbP+06p1ygIggABs6E9m7dc1tlaF8+Ovq19O7RtU91ISAAEEYO7m1b5T+7TqDUrCBfDTxvkxC56eURAAAQRg5gmz9ttb3MkIzq+XVadO7RtVd1cSAAEEoMbWuwdO7fXVy5WELeCE6m9m/WcoCYAAAlD1mBa33v1QdaySsIW8uHFAYdVNq7soCYAAAqxtu1aPmPVfqyRsQcdVb5r1n6YkAAIIsLY9rLrk1P5m9c9Kwhb2ly2OguxX3UlJAAQQYO0+3j121v/r6mxlYQv7QUt3VXu2kgAIIMDadI/qGlP7pOotSsJW8sIWR0FuUd1VSQAEEGDtefys/arqZCVhK/lhS0dBnqUkAAIIsLbsW91uap9evUZJ2Mpe2DjkcuH3z7kgAAIIsIY8cdb++8ZuRbA1/bB6/az/rJyODiCAAGvCNap7T+31jbMaYFuYj4LsU/2OkgAIIMDq9/hqh6nt4EG2pR+19KyZZ2UUBEAAAVa1y1QPn/VfpCRsYy9qcRTkxtW9lAQQQABWrz+pdpnaR1WHKwnb2I9buunBcz33AgIIwOq0S/Wns/5LlITt5EUtbvu8Z/UgJQEEEIDV52GNKVhV36reqSRsJ8dXr5j1n1ntqCyAAAKweuxYHTzrv7g6U1nYjl5a/Wxq/1ZL1yYBCCAAK9yDq6tO7eOqtyoJ29nPphCy4Oktrk8CEEAAVvjj2iGz/suqXysLy8ArGtOxqq5UPVpJAAEEYOW7b3Wtqf2z6nVKwjJxcvWCWf+QajdlAQQQgJVrXfWUWf+VLe4+BMvB66rvTO3LVk9QEkAAAVi5fqe6wdQ+eQogsJz8unEi+oInVZdTFkAAAViZnjZrv6E6UUlYhv62OnZq77bB7y2AAAKwQtyp2ndqn5aDB1m+ztogdDyqsTUvgAACsII8Z9Z+ffVDJWEZ+7/VEVN7x+r5SgIIIAArx12rm0/t06oXKgnL3PqWHpZ532ofZQEEEIDlb11LRz9eW/1IWVgBPlW9b/Z7fKiSAAIIwPJ3jxbfOT61epGSsII8pTpzat+hurOSAAIIwPK1rnr2rP+a6sfKwgpybPXWWf9FnpsBAQRg+TqwuuHUPqV6sZKwAj1z+v2tcY7NHygJIIAALM/Hr2fO+q+ujlcWVqAftnTb6OdXuyoLIIAALC/3r/aa2r+sXqokrGAvro6b2pevDlESQAABWD52rp436780ox+sbKe09HDCP6t2VxZAAAFYHh5d7TG1j69epiSsAm+tvjS1d8l5NoAAArAsXKL6i1n/uY0pWLDSnV09cda/f3UzZQEEEIDt68nVZab2t6q/URJWkY9U753a66q/mj4CCCAA28GVqsfN+k+rzlAWVpk/r349tW9R3U9JAAEEYPt4dnXRqX1k9Y9Kwir0jepVs/6h1cWUBRBAALat67X0gLanVOuVhVXqOS3u7LZ7S3fIAhBAALaBF1c7TO0PTxesVr9o6WYLT6iuqSyAAAKwbdy9utvUPqs6WElYA95cfWFq79xYkA4ggABsZRu+8HpL9Z/KwhpwdvWYFqca3r36XWUBBBCAretxLU49+UXmwrO2HNE4oHDBX1UXURZAAAHYOi7f0nnwz69+rCysMU+uTpraezS26QUQQAC2ghdWF5/a36heoSSsQSdUz5z1D6mupiyAAAKwZd28euis/4QWD2eDtebV1VFT+6LCOCCAAGz5x6ZXVuum/vurDygLa9hZ1aMbC9Or7jldAAIIwBbw8Gqfqf2r6rFKAn22esOs/6pqV2UBBBCAC+bSjbUfCw6t/ltZoKqnNNaEVF2lepaSAAIIwAXz/CmE1Fh4/kIlgf/xs+qJs/7jqhspCyCAAJw/+1aPnPUPakzBAha9vfro1L5wY1rWDsoCCCAA582Fq9fPHpfeUX1EWeB/WV89qjpt6t+kMRICIIAAnAd/Vu09tU+a+sDGfbN6zqz/nJwNAgggAJvt6i09aO0vqh8pC5yjl1ZfmtoXa0zFWqcsgAACcM7WVa9rHK5W9bmpD5yzMxprps6a+nes/khZAAEE4Jw9orrT1D6zMbf9bGWBzfK56iWz/ourPZQFEEAANm73xjSSBS+rjlIWOE+eWX1lau9WvTlTsQABBOB/WdeYs77b1D+2petAgM3z6+r3GyOIVbernqAsgAACsNSjqv2n9lnVw3LmB5xfR1YvmPVfUF1fWQABBGC4VmOu+oKXNOayA+ff86rPT+2dq7+bPgIIIMCatmPjJOeLTf0vVc9QFrjAzqgeXJ069W8whRIAAQRY055e3XRq/6p6UHW6ssAW8fXqSbP+E6s7KwsggABr1e2qp876h1RfVhbYol5XvX9qr6v+T3UFZQEEEGCtuUxjTvoOU//fqr9WFtji1ld/WB039S/XmPa4g9IAAgiwVqyr3lpdcer/qLFt6Hqlga3i+OqhLR7qeYeWjj4CCCDAqvbE6u5T+6zGQtkfKwtsVR+pDp31n1ndRlkAAQRY7W5TvXDWf2H1UWWBbeKZ1RFTe4fGNMjLKAsggACr1RWqf2xx7vnHcto5bEtnVPevfjr1r9yYDrlOaQABBFhtdprCx+Wn/g+mF0JnKQ1sU9+pHtLimqu7V3+uLIAAAqw2f1XdemqfXt23sTAW2Pb+paXrQV5Q3V5ZAAEEWC0eUR006z+x+oyywHb1tOoTU3uHxgjllZUFEECAlW6/6tWz/puqVykLbHdnVfervj/1L1u9uzFdEkAAAVaka1Tvmb2g+Y+WjoQA29ePq/s0pkVW3ax6rbIAAgiwEl2iOqzxrmqNd1kPnL3QAZaHI6rHzPoPrx6rLIAAAqwkO07hY6+pf2p1t8aJ58Dy8/rG9MgFL2uclg4ggADL3rrGmo+FFy9nVQ+ojlEaWNYOqj41tXeo3tmYRgkggADL2guqR876j63epyyw7J1e3btxTkjVpat/rS6lNIAAAixXj64OmfVfUr1GWWDFOKG6R3XK1L9GdsYCBBBgmTqweuWs/3fVwcoCK84x1QMb0ydrTKd8nbIAAgiwnOxfvaMxb7zq8MZOOuuVBlak91WPn/Uf1tLRTQABBNhu9mvpWR+fz3a7sBq8qqVngrxgCiIAAgiw3dyk+kB10an/5eru1c+VBlaFx7S4icS66g3VPZUFEECA7eFG1YcbBw5WfbO6S2MRK7A6LGyj/dmpv0NjuuXNlAYQQIBtae8pfCxsz/nd6s7VD5QGVp1TGztjfX3qX7R6f4sHjQIIIMBWdcMpfFx66n+7um31X0oDq9YJ1W9X35/6l6n+pbqq0gACCLA13bT6aHXZqf9f1e2mEAKsbt+v7lb9ZOpfufpIdQWlAQQQYGu4VWPk4zem/jem8PEdpYE145jGRhO/nPrXmB4XLqs0gAACbEl3rD7Y4oLzr1W3r76nNLDmfLa6V3Xa1N+zpWvCAAQQ4AK5b2Or3YtN/a9O4cOCc1i7Dp8eGxbO+9m7+lB1SaUBBBDggjio+vsWDxk8pjHt6jilgTXv/Y0tehdCyD6NNSFGQgABBDjP1lXPrl7d2Pe/6tON3a5+rDzA5LDqQY3zQmocTvqRFteKAQggwLnaqXpb9YzZvfc3zvn4mfIAG3h39cBZCLnxFEIupzSAAAKcm0s1Fps/ZHbvLdUBjcPIADbmndX9W5yOdaPqE9UVlQYQQIBNuWb1mcYC86r11TOrh1dnKg9wLt5d3WcWQq7TmLq5h9IAAgiwoTtWR0wvGJpeQPx+9RylAc6D91W/2+IWvXtMIeT6SgMIIMCCP63+tcVFoydW+1d/qzTA+fDB6i7Vz6f+FatPVrdRGkAAgbXtIo3F5q+sLjzd+0p188bcbYDz65ON6ZwLu+Zdqvq3xnoyAAEE1qA9Gus9Hjq794HqFtW3lAfYAo5qjHp8Z+pfpHpX9SdKAwggsLbcvfp8Y5eaGovNn1fds/ql8gBb0Ncbb2wcPfV3qF5VvazFM4YAAQRYpXasDq3+ubr0dO+kxoLRp1dnKxGwFRxX3br68OzeExq7Zl1MeQABBFan3Rtzsg9unHJe9eVq3ymQAGxNv2yMvr5tdu9e1aeqqygPCCDA6nL/xvSHm8/uvb66WfUN5QG2kTOqP6ie2pj6WWMq6Beq/ZQHBBBg5bt4493Gd1SXnO6dXD24+uOcbA5sH39Z/V51ytS/XHV49QilAQEEWLluW/1nS3e5OrLap/o75QG2s8Omx6nvTv2dqjdM10WUBwQQYOW4aPXyxruJe0z3zq5e2NiJ5mtKBCwTC2+KfGR27xGNk9OvpjwggADL336NUY/Hzf4tf6e6Q/WUxvxrgOXkhMap6S9ocV3ITRrrQn5HeUAAAZani1evbuxydc3p3vrqTdUNcqo5sLydVf1FY1esk6Z7l67e1zgvZGclAgEEWD7uVR1bHTT79/uD6m6NqQy/UCJghXhfY2vwL039dY3zQj5dXUN5QAABtq+rVe+t3lNdabq3vnpjdf3qg0oErEDfaKxXe/vs3j7VF6uHKw8IIMC2t1P1tMaoxz1n979e3b56ZItTGABWolOrh1R/2Ng6vGq3xrTS91SXUSIQQIBt44DqK9Vzq12me6dXz6v2zloPYHV5c2NB+pGze/eqjpk+AgIIsJVcr7Gt7mEtnQf94Wqv6unVr5QJWIW+Xt2yOrSxWL3q8o2RkH+a2oAAAmwhV6heVx3dmF614LvV/ar9pydngNXs9OqQ6nbVt2b3D6z+X2Oq1jplAgEEOP8u0ZhW9Y3qj6sLT/dPq55f7Vm9U5mANebTjemmr23xzJBLNjbf+Gh2ygIBBDjPdqn+rPpmY0/8i03311fvqK7TWIB+slIBa9QpjW3Hb1t9dXb/9o3tew9u8U0bQAABNuEi1WMbUwte2tIdXj7e2JLygY2pVwDUpxqjIc9ocQ3cLo21Ikc1pmsBAgiwgYtNweMb1Ssaaz4WfLm6e+Ndvc8qFcD/cnpjV8C9q4/N7l9/6v9DtbsygQAC1KWrZ1bfnoLHlWef+3pj//u9q39RKoBz9fXqt6uHVSfO7t+vxa3Ld1UmEEBgLdq9enn1nepZLZ1q9d/Tk+eejROAz1YugM22vnprdd3G+SELj6G7NtbOfb1xUKv1ISCAwJqwZ/W2xuLyx7W4uLzG9KuHV9eenjzPVC6A8+3Exra8+zTWiSy4QvX6xrbm9862vSCAwCq0Q+Pk8g82Tu19aLXj7PPHVA9ovFv3luoMJQPYYo5q7JT1wMZ01wXXq95dfa66izKBAAKrwRUaJ5N/u3Fy+Z1b+k7bx6rfaazx+IcWT/YFYMta2ML82o0tzufrQ/ap/rUxSnJnpQIBBFaadY3dqt7ZWN/xnJYuLD9jChv7VHeoPtDiIVoAbF2nV39VXbN6QUvPUrpVY6T6s9U9MzULBBBY5q5QPaGxy8rh1X1aOs3qB43F5ldrTLc6UskAtpuTGoe8Xr1x5tJps8/tW723sUbk4dXOygUCCCwXu1YPagzdf696WWMdx4L1Uxj5vSl4PLv6obIBLBsnVE+agsgrqlNnn9urelPj4NdnVb+pXCCAwPawQ7V/9bfVcY1tcu8y3V9w0vREdt3GfvT/lB2tAJazH1WPr/ZoTM36+exzl2uc1/Sdxra+N1AuEEBgW/xbuEVjhOO71b9VD27pYVbrq082zu+48vRE9jWlA1hRjm9MzbpqdUhLR613nh7jj64+Ut2rpVNtgS3AAT2sZTs3FpMfUN2jscZjY77dGA15W/UtZQNYFX5eHdpYsP6AxptKN5x9/ren6/jq7xpbqB+jbHDBGQFhrbl4df/GLlXHN9Z2/NFGwsfx1asbO6ZcvXqG8AGwKp3eeIPpRlPgOKylU2ov19iA5EvVEdNzxiWUDc4/IyCsBbs3zuK4R2Nb3J028XU/aeyK8q7qwzmzA2CtOXy6rlT9cfWIlr5BdbPpevkUVN42fb3nCxBAWOMuVN10ChwLhwBuynFT6Pin6uNZSA7A2Fb9GdVzq7tVfzh9XNiMZJfGDokPqn48PYf8Y/Xp6mzlAwGEtWHX6k5T4Lh757yV4tHV+6v3VV/wZAHAJpzReJPqvdUVq4dM156zr/nN6qDpOq76v9V7qk80pncBG1i3fr0Dmtk6DjzggK36u9vYJnH/xha5t2rTU6t+3Rjd+OcpeHzHTweAC+BGUxC53xRMNubnjXWG760+VP10a/1lDnvPe/xEWFGMgLCSXLYxynGnKXRc/hy+9oQpbHygsaXuycoHwBZy1HQ9qbp1dZ/q3hs8L12isenJ/RtrRD43BZIPVl/MuhEEEFiWLlLdsrrjdN2kTe/ctr768hQ6/rn6bKZWAbB1nd2YavWJ6nGN0fgDqns2DjxcsEPjrKlbVM+pftYYmf9Y9dHqWKVEAIHt9/u4T2MbxNtX+00hZFN+2tit6oPT9SMlBGA7OWsWRh5f7TUFkbtV+27wmutSU1BZmKv8o8bBhx+dru8pJwIIbB0Xmh6gbz+FjttWu53Lg/t8CPvIjHIAsDwdM13Pb0zHul1jCvH+1TU3+NrLVw+erqqvzcLIxxojJiCAwPmwQ2NL3NtMD8S3qi59Dl+/MK3qY4191j/eWNQHACvJz1vcTavqao2pxfs33oD7jQ2+/trTdVDjzbcvTs+Fn2xs9eu5EAEEzuH3a5/GAr3bToHj3E6PPXYKGh+fHmxPVEYAVplvV2+crgs1dtVaWO+4X+OckQU7NM62uml18BRIvjSFkX+vPtM4twRWjBWxDe9W3s6VLWe3xgmxt5xCx80b53Ock2+2OLrx8cYe6gCwVl1kCiF3bIyO3LjFAxA35b+mIPIfjanKRzfOMGGZWutbJxsB4YLYfXqQvEVjdOMGm/Eg+e3GyMbC9X1lBID/8asW13/UWLB+m8Ybe7dq7Ai54eu3q0/Xg2d/xlFTGFm4vqm0CCCsNAvrN+aB4yqb8X3frj7VGN04fOoDAJvnZy1dP3KxxmyDW02h5BbTvbmLtLjt74KfzMLIF6aAYuoWAgjLym6NKVS3akypulnnvENVjXmp/9kYBv50Y26qBzcA2HJOabyhd/jstdyNpufqfafn69/ayPddurrrdC340fS8feTs438rMQII28rVpwet/abQcf3OfTrVLxsH/v37FDg+O90DALaNM6vPT9eCy0zP6fvOQsmlNvK9l6/uMl0LTmrsunVUYy3Jl6r/V52u1AggXBAXa8whXRievdn0IHRuftAY3fjU9PHo6YEPAFg+Tqw+MF1V6xpnj+zbWNR+48aoycU38r2XrO4wXQvOqL46hZH59UOlRgBhU67RmE61EDb23oyf/dmNLXEXplL9e4ZlAWAlWl99fbrevkEoufEG18ZGSnZsHBy8V/WgDYLO0dVXpuuY6bWDc0oQQNaYXRtnb+zXeKfjFtVlN+P7TqqOaGzhd0RjOpUHEABY/aHkH2b396hu2NjZcu/p49WnwLKhyzS2Cv7tDe5/ZwoiX56ur0z905QdAWR1uNYUMvadQsfmrN1YGN34j1no+Or0YAQArF3/PV3zgyou3hj9WAgkN6z2bNNnfV11uu66wWuPb0+B5P9N17HT6w/rRwUQlrGLNU5C3W8WOjZndOOnjW33/qOxduPzGd0AADbPL1qcjr1gXWO05PpTGLnB9PHa1U4b+TMu1OJ5Jffc4HPfnoLIV6aPx05tr1UEELaDqze21bvF9PH6bf7ajc80RjeOyOgGALBlrW+cwP5f1ftm93dszM64fmPU5LpT++rn8BrmatN1lw3u/6CloyULU7l+ovwCCFvGLo21G7ecrptXl9uM7/tpY2Tjs7OPhjIBgO3hjBYXpf/j7P5OUzDZs7reFEyuN93bcRN/1pWm644b3D9hFka+MgWUL0/3EUA4B1dt6ejG5uxMddb0D2xh3cZ/VN/I6AYAsLyd3uKi9LkdG7t1Xm+69qyuM107b+LPumx1u+maO7HFNSZfbswAOUYwEUDWcp33rm49hY1bVVfYjO87oTGicURjStUXMroBAKweZ7Q4zeqfZvd3aJzovhBIFkZOrtOYNbIxl9lEMPnJFES+ukFAOV75BZDVZLfGyMZ+03XzxgLyczJfu/GZxujG15USAFiDzmpxm+C5CzXWiyyMllx3Fkx228SfdelzCCYLgWThHJMvVT9TfgFkJbhcY3TjNtO1V+e+Fe4pjdGNT7c4ncpuDwAAm3Z2i4vf37/B567W4mjJfNTkEucQTG47XXPfn4WRY1ocPTld+QWQ7elK0y/rQui4bhs/oGfuu43t6xa2wj26OlMpAQC2iG9P1wc38rrtuo03iPecPl6vTZ9jcuXpmp9jcsYUQo6u/nO6jmpsBoQAslVcubpDdfspdPzWZqTzL1WfmgLHJxtbyQEAsG39YLo+Mru3qXNMrtPGd+XacQoue1UPnt3/7hRGvjgFkv+c7iGAnGcLuyv89hQ6rnUuX39mdeQUND7ZmFZ1kjICACxLm3OOyQ0aIyV7TWHlQhv5c3afrvnhij9pbBz0+enj56rjlHyW/tavX/47uB54wAFb+z+x2waBY6/OeUrVr6dfpk80Rjk+U53s1wkAYFXarbrhdN2ouvEUTnbczO///iyULFwnbcv/gcPe855lU8y1OgJyoeom1f7TdctzqcUpja1wPzmFjs9Vp/m3CACwJvyy8abzp2b3dmqMlNxkFk72buM7ny6sK7nX1F/fWFPymRan7K+Z3U/XUgC5UnWn6i6N9RyXPYevPX36RfhY9dHGblVn+LcHAMDs9eIXp2vBDo0pXDdsjJLcqNqn/70T17rGwvjrVn843TuhsWHRwg6pRzZm3QggK8iFGudv/M507XUOX3t2Y+HQR6vDpyR6qn9XAACcB2e1eLDiO2Zh4zrVvtN1s8b6kg2nb122MUJyr6l/WmOEZOEN8S+0SnZQXW0BZLfGlKp7VHfrnEc5flB9uLFV2+FT6gQAgC1p/SyUvG26t0tjdOQW1a0aB1dv+Lp1l8b65N+unlf9orEU4PDpOmb6swWQ7WD36ncboxy3a8zH25RTq483tmE7ZnZ/b/82tigniK4MJ63UB64V7PTGmjLw75PVbrfstnpuFkLJm6f+tacgsqlAcvHGm+z3mPrHT0HkA9W/tYLeTF+pvxhXq36vundjGGvdZn7fRRsjI3fzOw8AwAp2uer+03V2Y83IB6p/bum6FAHkArjGFDju09htAAAAGGufbzpdz2ochvi+xujKUQLI+XPj6qDqqo3pPR/xe7ZdXbLNH3ViebpotbMybHUX65ynhbI2XLyxMw6sZmfkTLTlZLfqQdV9q0Ord1XfWy5/uRVxECEAALA6XEgJAAAAAQQAABBAAAAABBAAAEAAAQAAEEAAAAABBAAAEEAAAAAEEAAAQAABAAAQQAAAAAEEAAAQQAAAAAQQAABAAAEAABBAAAAAAQQAABBAAAAABBAAAEAAAQAAEEAAAAABBAAAEEAAAAAEEAAAQAABAAAQQAAAAAEEAAAQQAAAAAQQAABAAAEAABBAAAAAAQQAAEAAAQAABBAAAEAAAQAAEEAAAAABBAAAQAABAAAEEAAAQAABAAAQQAAAAAEEAABAAAEAAAQQAABAAAEAABBAAAAAAQQAAEAAAQAABBAAAEAAAQAAEEAAAAABBAAAQAABAAAEEAAAQAABAAAQQAAAAAEEAABAAAEAAAQQAAAAAQQAABBAAAAAAQQAAEAAAQAABBAAAAABBAAAEEAAAAABBAAAQAABAAAEEAAAAAEEAAAQQAAAAAEEAABAAAEAAAQQAAAAAQQAABBAAAAAAQQAAEAAAQAABBAAAAABBAAAEEAAAAABBAAAQAABAAAEEAAAAAEEAAAQQAAAAAFECQAAAAEEAAAQQAAAAAQQAABAAAEAABBAAAAAAQQAABBAAAAABBAAAEAAAQAAEEAAAAABBAAAEEAAAAAEEAAAQAABAAAQQAAAAAEEAAAQQAAAAAQQAABAAAEAABBAAAAAAQQAABBAAAAABBAAAEAAAQAAEEAAAAABBAAAEEAAAAAEEAAAQAABAAAQQAAAAAEEAABAAAEAAAQQAABAAAEAABBAAAAAAQQAAEAAAQAABBAAAEAAAQAAEEAAAAABBAAAQAABAAAEEAAAQAABAAAQQAAAAAEEAABAAAEAAAQQAABAAAEAABBAAAAAAQQAAEAAAQAABBAAAEAAAQAAEEAAAAABBAAAQAABAAAEEAAAAAEEAAAQQAAAAAEEAABAAAEAAAQQAAAAAQQAABBAAAAAAQQAAEAAAQAABBAAAAABBAAAEEAAAAABBAAAQAABAAAEEAAAAAEEAAAQQAAAAAEEAABAAAEAAAQQAAAAAQQAABBAAAAAAQQAAEAAAQAABBAAAAABBAAAEEAAAAABRAkAAAABBAAAEEAAAAAEEAAAQAABAAAQQAAAAAEEAAAQQAAAAAQQAABAAAEAABBAAAAAAQQAABBAAAAABBAAAEAAAQAAEEAAAAABBAAAEEAAAAAEEAAAQAABAAAQQAAAAAEEAAAQQAAAAAQQAABAAAEAABBAAAAAAQQAABBAAAAABBAAAEAAAQAAEEAAAAABBAAAQAABAAC2rf8/ALoq+VuLq6jWAAAAAElFTkSuQmCC;" vertex="1" parent="1">
          <mxGeometry x="403.33000000000004" y="240" width="93.34" height="70" as="geometry" />
        </mxCell>
        <mxCell id="xQ31_4lAjrQs9WSGZhHq-7" value="$$\mu$$" style="text;html=1;align=center;verticalAlign=middle;resizable=0;points=[];autosize=1;fontSize=20;" vertex="1" parent="1">
          <mxGeometry x="380" y="290" width="90" height="30" as="geometry" />
        </mxCell>
        <mxCell id="xQ31_4lAjrQs9WSGZhHq-8" value="$$\sigma$$" style="text;html=1;align=center;verticalAlign=middle;resizable=0;points=[];autosize=1;fontSize=20;" vertex="1" parent="1">
          <mxGeometry x="410.00000000000006" y="290" width="120" height="30" as="geometry" />
        </mxCell>
        <mxCell id="xQ31_4lAjrQs9WSGZhHq-14" style="edgeStyle=orthogonalEdgeStyle;rounded=0;orthogonalLoop=1;jettySize=auto;html=1;entryX=0;entryY=0.5;entryDx=0;entryDy=0;fontSize=20;" edge="1" parent="1" source="xQ31_4lAjrQs9WSGZhHq-10" target="xQ31_4lAjrQs9WSGZhHq-12">
          <mxGeometry relative="1" as="geometry" />
        </mxCell>
        <mxCell id="xQ31_4lAjrQs9WSGZhHq-10" value="Make&lt;br&gt;Decision" style="rounded=0;whiteSpace=wrap;html=1;fillColor=none;fontSize=20;" vertex="1" parent="1">
          <mxGeometry x="580" y="240" width="160" height="80" as="geometry" />
        </mxCell>
        <mxCell id="xQ31_4lAjrQs9WSGZhHq-22" style="edgeStyle=orthogonalEdgeStyle;rounded=0;orthogonalLoop=1;jettySize=auto;html=1;entryX=0;entryY=0.5;entryDx=0;entryDy=0;fontSize=20;" edge="1" parent="1" source="xQ31_4lAjrQs9WSGZhHq-12" target="xQ31_4lAjrQs9WSGZhHq-21">
          <mxGeometry relative="1" as="geometry" />
        </mxCell>
        <mxCell id="xQ31_4lAjrQs9WSGZhHq-30" style="edgeStyle=orthogonalEdgeStyle;rounded=0;orthogonalLoop=1;jettySize=auto;html=1;exitX=1;exitY=0.5;exitDx=0;exitDy=0;entryX=0;entryY=0.25;entryDx=0;entryDy=0;fontSize=20;" edge="1" parent="1" source="xQ31_4lAjrQs9WSGZhHq-12" target="xQ31_4lAjrQs9WSGZhHq-29">
          <mxGeometry relative="1" as="geometry" />
        </mxCell>
        <mxCell id="xQ31_4lAjrQs9WSGZhHq-12" value="&lt;font face=&quot;Play&quot; style=&quot;font-size: 20px&quot;&gt;Action&lt;/font&gt;" style="ellipse;whiteSpace=wrap;html=1;aspect=fixed;fillColor=none;fontSize=20;" vertex="1" parent="1">
          <mxGeometry x="820" y="230" width="100" height="100" as="geometry" />
        </mxCell>
        <mxCell id="xQ31_4lAjrQs9WSGZhHq-13" value="$$\mu$$" style="text;html=1;align=center;verticalAlign=middle;resizable=0;points=[];autosize=1;fontSize=20;" vertex="1" parent="1">
          <mxGeometry x="490" y="250" width="90" height="30" as="geometry" />
        </mxCell>
        <mxCell id="xQ31_4lAjrQs9WSGZhHq-38" style="edgeStyle=orthogonalEdgeStyle;rounded=0;orthogonalLoop=1;jettySize=auto;html=1;exitX=0.5;exitY=1;exitDx=0;exitDy=0;entryX=0.5;entryY=0;entryDx=0;entryDy=0;fontSize=20;" edge="1" parent="1" source="xQ31_4lAjrQs9WSGZhHq-18" target="xQ31_4lAjrQs9WSGZhHq-37">
          <mxGeometry relative="1" as="geometry" />
        </mxCell>
        <mxCell id="xQ31_4lAjrQs9WSGZhHq-18" value="" style="ellipse;whiteSpace=wrap;html=1;aspect=fixed;fillColor=none;fontSize=20;" vertex="1" parent="1">
          <mxGeometry x="1620" y="230" width="100" height="100" as="geometry" />
        </mxCell>
        <mxCell id="xQ31_4lAjrQs9WSGZhHq-19" value="" style="shape=image;verticalLabelPosition=bottom;labelBackgroundColor=#ffffff;verticalAlign=top;aspect=fixed;imageAspect=0;image=data:image/png,iVBORw0KGgoAAAANSUhEUgAAAyAAAAJYCAYAAACadoJwAAAACXBIWXMAAAsTAAALEwEAmpwYAAAKT2lDQ1BQaG90b3Nob3AgSUNDIHByb2ZpbGUAAHjanVNnVFPpFj333vRCS4iAlEtvUhUIIFJCi4AUkSYqIQkQSoghodkVUcERRUUEG8igiAOOjoCMFVEsDIoK2AfkIaKOg6OIisr74Xuja9a89+bN/rXXPues852zzwfACAyWSDNRNYAMqUIeEeCDx8TG4eQuQIEKJHAAEAizZCFz/SMBAPh+PDwrIsAHvgABeNMLCADATZvAMByH/w/qQplcAYCEAcB0kThLCIAUAEB6jkKmAEBGAYCdmCZTAKAEAGDLY2LjAFAtAGAnf+bTAICd+Jl7AQBblCEVAaCRACATZYhEAGg7AKzPVopFAFgwABRmS8Q5ANgtADBJV2ZIALC3AMDOEAuyAAgMADBRiIUpAAR7AGDIIyN4AISZABRG8lc88SuuEOcqAAB4mbI8uSQ5RYFbCC1xB1dXLh4ozkkXKxQ2YQJhmkAuwnmZGTKBNA/g88wAAKCRFRHgg/P9eM4Ors7ONo62Dl8t6r8G/yJiYuP+5c+rcEAAAOF0ftH+LC+zGoA7BoBt/qIl7gRoXgugdfeLZrIPQLUAoOnaV/Nw+H48PEWhkLnZ2eXk5NhKxEJbYcpXff5nwl/AV/1s+X48/Pf14L7iJIEyXYFHBPjgwsz0TKUcz5IJhGLc5o9H/LcL//wd0yLESWK5WCoU41EScY5EmozzMqUiiUKSKcUl0v9k4t8s+wM+3zUAsGo+AXuRLahdYwP2SycQWHTA4vcAAPK7b8HUKAgDgGiD4c93/+8//UegJQCAZkmScQAAXkQkLlTKsz/HCAAARKCBKrBBG/TBGCzABhzBBdzBC/xgNoRCJMTCQhBCCmSAHHJgKayCQiiGzbAdKmAv1EAdNMBRaIaTcA4uwlW4Dj1wD/phCJ7BKLyBCQRByAgTYSHaiAFiilgjjggXmYX4IcFIBBKLJCDJiBRRIkuRNUgxUopUIFVIHfI9cgI5h1xGupE7yAAygvyGvEcxlIGyUT3UDLVDuag3GoRGogvQZHQxmo8WoJvQcrQaPYw2oefQq2gP2o8+Q8cwwOgYBzPEbDAuxsNCsTgsCZNjy7EirAyrxhqwVqwDu4n1Y8+xdwQSgUXACTYEd0IgYR5BSFhMWE7YSKggHCQ0EdoJNwkDhFHCJyKTqEu0JroR+cQYYjIxh1hILCPWEo8TLxB7iEPENyQSiUMyJ7mQAkmxpFTSEtJG0m5SI+ksqZs0SBojk8naZGuyBzmULCAryIXkneTD5DPkG+Qh8lsKnWJAcaT4U+IoUspqShnlEOU05QZlmDJBVaOaUt2ooVQRNY9aQq2htlKvUYeoEzR1mjnNgxZJS6WtopXTGmgXaPdpr+h0uhHdlR5Ol9BX0svpR+iX6AP0dwwNhhWDx4hnKBmbGAcYZxl3GK+YTKYZ04sZx1QwNzHrmOeZD5lvVVgqtip8FZHKCpVKlSaVGyovVKmqpqreqgtV81XLVI+pXlN9rkZVM1PjqQnUlqtVqp1Q61MbU2epO6iHqmeob1Q/pH5Z/YkGWcNMw09DpFGgsV/jvMYgC2MZs3gsIWsNq4Z1gTXEJrHN2Xx2KruY/R27iz2qqaE5QzNKM1ezUvOUZj8H45hx+Jx0TgnnKKeX836K3hTvKeIpG6Y0TLkxZVxrqpaXllirSKtRq0frvTau7aedpr1Fu1n7gQ5Bx0onXCdHZ4/OBZ3nU9lT3acKpxZNPTr1ri6qa6UbobtEd79up+6Ynr5egJ5Mb6feeb3n+hx9L/1U/W36p/VHDFgGswwkBtsMzhg8xTVxbzwdL8fb8VFDXcNAQ6VhlWGX4YSRudE8o9VGjUYPjGnGXOMk423GbcajJgYmISZLTepN7ppSTbmmKaY7TDtMx83MzaLN1pk1mz0x1zLnm+eb15vft2BaeFostqi2uGVJsuRaplnutrxuhVo5WaVYVVpds0atna0l1rutu6cRp7lOk06rntZnw7Dxtsm2qbcZsOXYBtuutm22fWFnYhdnt8Wuw+6TvZN9un2N/T0HDYfZDqsdWh1+c7RyFDpWOt6azpzuP33F9JbpL2dYzxDP2DPjthPLKcRpnVOb00dnF2e5c4PziIuJS4LLLpc+Lpsbxt3IveRKdPVxXeF60vWdm7Obwu2o26/uNu5p7ofcn8w0nymeWTNz0MPIQ+BR5dE/C5+VMGvfrH5PQ0+BZ7XnIy9jL5FXrdewt6V3qvdh7xc+9j5yn+M+4zw33jLeWV/MN8C3yLfLT8Nvnl+F30N/I/9k/3r/0QCngCUBZwOJgUGBWwL7+Hp8Ib+OPzrbZfay2e1BjKC5QRVBj4KtguXBrSFoyOyQrSH355jOkc5pDoVQfujW0Adh5mGLw34MJ4WHhVeGP45wiFga0TGXNXfR3ENz30T6RJZE3ptnMU85ry1KNSo+qi5qPNo3ujS6P8YuZlnM1VidWElsSxw5LiquNm5svt/87fOH4p3iC+N7F5gvyF1weaHOwvSFpxapLhIsOpZATIhOOJTwQRAqqBaMJfITdyWOCnnCHcJnIi/RNtGI2ENcKh5O8kgqTXqS7JG8NXkkxTOlLOW5hCepkLxMDUzdmzqeFpp2IG0yPTq9MYOSkZBxQqohTZO2Z+pn5mZ2y6xlhbL+xW6Lty8elQfJa7OQrAVZLQq2QqboVFoo1yoHsmdlV2a/zYnKOZarnivN7cyzytuQN5zvn//tEsIS4ZK2pYZLVy0dWOa9rGo5sjxxedsK4xUFK4ZWBqw8uIq2Km3VT6vtV5eufr0mek1rgV7ByoLBtQFr6wtVCuWFfevc1+1dT1gvWd+1YfqGnRs+FYmKrhTbF5cVf9go3HjlG4dvyr+Z3JS0qavEuWTPZtJm6ebeLZ5bDpaql+aXDm4N2dq0Dd9WtO319kXbL5fNKNu7g7ZDuaO/PLi8ZafJzs07P1SkVPRU+lQ27tLdtWHX+G7R7ht7vPY07NXbW7z3/T7JvttVAVVN1WbVZftJ+7P3P66Jqun4lvttXa1ObXHtxwPSA/0HIw6217nU1R3SPVRSj9Yr60cOxx++/p3vdy0NNg1VjZzG4iNwRHnk6fcJ3/ceDTradox7rOEH0x92HWcdL2pCmvKaRptTmvtbYlu6T8w+0dbq3nr8R9sfD5w0PFl5SvNUyWna6YLTk2fyz4ydlZ19fi753GDborZ752PO32oPb++6EHTh0kX/i+c7vDvOXPK4dPKy2+UTV7hXmq86X23qdOo8/pPTT8e7nLuarrlca7nuer21e2b36RueN87d9L158Rb/1tWeOT3dvfN6b/fF9/XfFt1+cif9zsu72Xcn7q28T7xf9EDtQdlD3YfVP1v+3Njv3H9qwHeg89HcR/cGhYPP/pH1jw9DBY+Zj8uGDYbrnjg+OTniP3L96fynQ89kzyaeF/6i/suuFxYvfvjV69fO0ZjRoZfyl5O/bXyl/erA6xmv28bCxh6+yXgzMV70VvvtwXfcdx3vo98PT+R8IH8o/2j5sfVT0Kf7kxmTk/8EA5jz/GMzLdsAAAAgY0hSTQAAeiUAAICDAAD5/wAAgOkAAHUwAADqYAAAOpgAABdvkl/FRgAALWVJREFUeNrs3XeYpmV99+HPioAoWGKJFcXYEbEgFuxRbNEIxl4SjSZKYosG0dhbxBaNNXbfmJiowVejibFgjcGCBFFea2JHARWVorR9/7juydyz2YUFtkw5z+O4j7mue2aW5Tezz/N8n6utW79+fQAAANvChZQAAAAQQAAAAAEEAABAAAEAAAQQAAAAAQQAABBAAAAAAQQAAEAAAQAABBAAAAABBAAAEEAAAAABBAAAQAABAAAEEAAAAAEEAAAQQAAAAAEEAABAAAEAAAQQAAAAAQQAABBAAAAAAQQAAEAAAQAABBAAAAABBAAAEEAAAAABBAAAQAABAAAEEAAAAAEEAAAQQAAAAAQQAABAAAEAAAQQAAAAAQQAABBAAAAABBAAAEAAAQAABBAAAAABBAAAEEAAAAAEEAAAQAABAAAEEAAAAAEEAAAQQAAAAAQQAABAAAEAAAQQAAAAAQQAABBAAAAABBAAAEAAAQAABBAAAAABBAAAEEAAAAAEEAAAQAABAAAQQAAAAAEEAAAQQAAAAAQQAABAAAEAABBAAAAAAQQAABBAAAAABBAAAEAAAQAAEEAAAAABBAAAEEAAAAAEEAAAQAABAAAQQAAAAAEEAAAQQAAAAAQQAABAAAEAABBAAAAAAQQAABBAAAAABBAAAEAAAQAAEEAAAAABBAAAEECUAAAAEEAAAAABBAAAQAABAAAEEAAAAAEEAAAQQAAAAAEEAABAAAEAAAQQAAAAAQQAABBAAAAAAQQAAEAAAQAABBAAAAABBAAAEEAAAAABBAAAQAABAAAEEAAAAAEEAAAQQAAAAAEEAABAAAEAAAQQAAAAAQQAABBAAAAAAQQAAEAAAQAABBAAAAABBAAAEEAAAAAEEAAAQAABAABWqQsrAcDKdOABB2ytP3rP6mbVTab2VaorVL+qTqpOrI6tvlZ9pvqP6nQ/Edg+DnvPexQBAQSAFWXH6i7VgdX+1RU38XW7VJeq9qhuOrt/avWJ6u+qw6rTlBQAAQSADV23Oqh6QHXpC/DnXLS663T9vHp79aLqu0oMgAACwB2rJ1Z3rtZt5PM/qz5VHVEdXX2j+mG1c3XJxnSs61Q3qm5bXX/2vZeo/qT6oymIPG36XgAQQADWmFtXf1ntt5HP/bD6++q9jTUdZ23ka06pflr9V/Xvs/tXqR5Y/cEUTGpM63pYdZ/qudXLs04EgOyCBbAWXKV6d/XJDcLH2dX7Gus/dq/+vPr0JsLHOfledWhjStf+jfUgC3adPndktZcfBQACCMDqdeHGVKtjq3vP7p9ZvbG6XvW71b+dj9CxKR+ublfdvjpqdv/61eeqx7XxaV8ACCAArGDXbmyR+5LGKETV+uqdU/B4ZGMb3a3l49U+1WMaU7eqLtKYivXu2d8JAAEEgBVsXfWo6ost3Sr3y9Vtqvs1FpVvC2dXr2qcJ3Lk7P6BjTUkV/bjAhBAAFi5dq3+sXptY2vcGocHHlLduLG+Y3v4WnXL6pWzezdoLHa/jh8bgAACwMpzzca2ufeZ3TumMQpyaHXGdv77nV49tjE6s/B3uXJjqtbefnwAAggAK8cdGwu895z666tXVPs2pl4tJ3/TOLDwF1P/N6vDG+tFABBAAFjmHlx9oHFAYNVpjTM5Ht+YfrUcfbS6Q3Xi1P+N6l9mAQoAAQSAZejPq/9T7TT1v1fdqvqHFfB3P7IxcnPC1L9s9cHGeSQArGJOQmerOfCAAxQBtp7nV0/d4AX93arjV9D/w9HVnauPVZdorAn5aGPB+gl+xACrkxEQgJXnBRuEj481pjQdvwL/X45qnMR+6tS/RmMnr538mAEEEACWR/h4yqz/3sbIxy9W8P/TEdUDWjyN/fYt3bIXAAEEgO3gkA3Cxzure7d8F5ufF+/b4P/tjxqnqAMggACwHfxRY/RjwXurh7Q4arAavLh6y6z/kuoWfvQAAggA29Y9q9dU66b+v1X3bRzut9o8uvr81N6psaPXpf0KAAggAGwbN6veUe0w9T9VHbhKw0fVrxunuf9s6u9evXUWvgAQQADYSq5U/VN10an/zcaaj1NX+f/3d6o/aJzoXvU71RP8OgAIIABsPTtP4eNKU/8n1V1bO+djvK962az/gur6fi0ABBAAto6/aUy/qjHd6r6NEZC15KnVF2aB7O05HwRAAAFgizuo+v1Z/1HV4WuwDqdPdVjYZnjv6ll+PQAEEAC2nBtVL53139zSrWnXmmNbej7IwdmaF0AAAWCL2LWx49VFpv7ROYyv6hXVx6b2DtUbG1OyABBAALgAXlNde2r/vLHu41RlaX318OqUqX+96mnKAiCAAHD+PahxsvmCR1ZfV5b/8e3q6bP+wVMQAUAAAeA8unz117P+W6p3Kcv/8tctPSX99TmgEEAAAeA8e331G1P7uzl0b1POqh5RnTH196seqiwAAggAm++h1T2m9vrqYY31H2zcl1q6S9ih1SWVBUAAAeDcXbF6+az/ytbmeR/n1fMaI0VVv1k9W0kABBAAzt1Lq0tN7W9UhyjJZjmletKsf1B1Q2UBEEAA2LQ7Vvff4EX0acqy2d5VfWhqX7ili/gBEEAAmNm5evWs/47qI8pynj2uxQXpt67urSQAAggA/9ufV9ea2j+vnqgk58tXG+tmFrwoJ6QDCCAALLFH9dRZ/2nVccpyvj23+snUvnr1GCUBEEAAWPSKapepfWT1WiW5QE6qnrVBoLussgAIIADU3Vs88+Ps6tGNw/W4YF7XmI5VdYnqmUoCIIAArHUXael6hTdUn1eWLeLMlm7L+8ctrrEBQAABWJMOaaz/qDqx+gsl2aI+UH1sal+4+kslARBAANaqPaonz/pPaXHhNFvOk6v1U/vAaj8lARBAANai5zWmYFUdUb1JSbaKz1fvnvVfVK1TFgABBGAtuVH1gFn/iS2+S8+W9xctHk54y8ZICAACCMCacWiL78IfVn1GSbaqbzQW+C94XrWDsgAIIABrwR2rO03tM1t6ACFbz3Oqk6f2daoHKwmAAAKw2q2rXjjrv6H6mrJsEz+uXjbrP7PaUVkABBCA1eze1U2m9inVs5Vkm3pJdfzU3qP6QyUBEEAAVqt11dNn/Vc23pVn2/ll9YJZ/2nVLsoCIIAArEYHVDeYvRB+iZJsF39T/WBqX6l6lJIACCAAq8266hmz/qtz6OD28quWnoh+cEZBAAQQgFXmntXeU9vox/b3huq7U/vy1SOVBEAAAVgtNhz9eGVGP7a306vnz/oHVzsrC4AAArAa3LW68dQ+uforJVkW3lp9Z2pfqXq4kgAIIACrwcGz9huqE5VkWTi9pWeyPLnaSVkABBCAlezm1W1nL3hfpiTLypur70/tq1YPVRIAAQRgJXvyrP322YtdlofTW7oj1lOqCysLgAACsBJdp7H7VdXZ1YuUZFl6U/XDqX316kFKAiCAAKxET5o9nr6n+pqSLEu/bum2yE+tdlAWAAEEYCW5QvWQWd+5H8vb61vcHOBa1f2UBEAAAVhJDmpxR6Ujpovl65TqFbP+X3guBBBAAFaKXapHzfrO/VgZXlX9fGpfrzpASQAEEICV4MHVZab2d6vDlGRFOKl6zaz/9MYp9gAIIADL1rrq8bP+K6szlWXF+Kvq1Km9d3V3JQEQQACWs/0b03eqTq7eqCQrygmNBekLDlESAAEEYDl7wqz9lsa0HlaWlzQOKKzar7q1kgAIIADL0fUaIyA1Dh78ayVZkX4whccFT1ESAAEEYDl6bIuLlj9UfVNJVqwXt7h25y7VDZUEQAABWE4uWT1o1n+5kqxo36reNbXXZS0IgAACsMw8otp1ah/bGAFhZXthtX5q/151DSUBEEAAlstj5vzgwZfPXriycn2p+pepvUN1sJIACCAAy8E9qt+a2idWb1eSVeOFs/bvV1dUEgABBGB7+5NZ+43VaUqyanx6uqp2qv5MSQAEEIDt6XrVHaf2WdVrlWTV+ctZ+4+r31ASAAEEYHt5VItb776/+q6SrDr/Wh09tXet/lRJAAQQgO1h1+oPZv1XK8mqtL46dNZ/TIs7ngEggABsMw+tdpvaX60+oiSr1rsaZ4NUXaax7TIAAgjANjVffP6abL27mp3ZOB19wZ81FqUDIIAAbBO3ayxArzq5+lslWfXeVh03ta9SPVhJAAQQgG3loFn77dVJSrLq/apxyOSCgz1fAgggANvCFasDZv1XKcma8dpZ2Lx2daCSAAggAFvbH1cXntofr76iJGvGLzcInIcoCYAAArA17VQ9ctZ/jZKsOa+oTp3aN6nupCQAAgjA1nJAdYWp/YPqPUqy5pxYvWHWf4qSAAggAFvLfOvd1zW2Z2XteWl1+tS+fXUzJQEQQAC2tBtUt57ap1dvUpI163vV3836RkEABBCALW4++vFPLZ4Jwdp0aHX21L5ntaeSAAggAFvKJasHzvq23uVr1WFTe131ZCUBEEAAtpSHVrtO7aOqzygJ1V/O2g+orqYkAAIIwAW1rvrTWf/VSsLki9WHpvaFqycpCYAAAnBB7V9dc2r/tPp7JWHmBbP2w6vfVBIAAQTggpiPfry5Ok1JmPlEi1PydqkepyQAAgjA+XWN6m5T++zqtUrCRrxw1n50dQklARBAAM6PR80eE/+l+i8lYSPeXx0ztS9ZHaQkAAIIwHl1seoPZ31b77Ip61s6CvKE6qLKAiCAAJwXD2y8m131zRZ3O4KNeWf1ral92eqPlARAAAE4Lx4za7+68S43bMqZ1Utm/SdVOykLgAACsDluV+01tU+u3qokbIa3VsdN7StVD1MSAAEEYHPMFxH/fXWSkrAZflW9bNY/uHFAIQACCMAm7V4dMOtbfM558brqxKl99er+SgIggACck0e2+K71J1rcXhU2x8ktHQV5qudVAAEEYFN2apz9seA1SsL58JoWp+1dt7q3kgAIIAAbc//qMlP7u9VhSsL58PPqFbP+06p1ygIggABs6E9m7dc1tlaF8+Ovq19O7RtU91ISAAEEYO7m1b5T+7TqDUrCBfDTxvkxC56eURAAAQRg5gmz9ttb3MkIzq+XVadO7RtVd1cSAAEEoMbWuwdO7fXVy5WELeCE6m9m/WcoCYAAAlD1mBa33v1QdaySsIW8uHFAYdVNq7soCYAAAqxtu1aPmPVfqyRsQcdVb5r1n6YkAAIIsLY9rLrk1P5m9c9Kwhb2ly2OguxX3UlJAAQQYO0+3j121v/r6mxlYQv7QUt3VXu2kgAIIMDadI/qGlP7pOotSsJW8sIWR0FuUd1VSQAEEGDtefys/arqZCVhK/lhS0dBnqUkAAIIsLbsW91uap9evUZJ2Mpe2DjkcuH3z7kgAAIIsIY8cdb++8ZuRbA1/bB6/az/rJyODiCAAGvCNap7T+31jbMaYFuYj4LsU/2OkgAIIMDq9/hqh6nt4EG2pR+19KyZZ2UUBEAAAVa1y1QPn/VfpCRsYy9qcRTkxtW9lAQQQABWrz+pdpnaR1WHKwnb2I9buunBcz33AgIIwOq0S/Wns/5LlITt5EUtbvu8Z/UgJQEEEIDV52GNKVhV36reqSRsJ8dXr5j1n1ntqCyAAAKweuxYHTzrv7g6U1nYjl5a/Wxq/1ZL1yYBCCAAK9yDq6tO7eOqtyoJ29nPphCy4Oktrk8CEEAAVvjj2iGz/suqXysLy8ArGtOxqq5UPVpJAAEEYOW7b3Wtqf2z6nVKwjJxcvWCWf+QajdlAQQQgJVrXfWUWf+VLe4+BMvB66rvTO3LVk9QEkAAAVi5fqe6wdQ+eQogsJz8unEi+oInVZdTFkAAAViZnjZrv6E6UUlYhv62OnZq77bB7y2AAAKwQtyp2ndqn5aDB1m+ztogdDyqsTUvgAACsII8Z9Z+ffVDJWEZ+7/VEVN7x+r5SgIIIAArx12rm0/t06oXKgnL3PqWHpZ532ofZQEEEIDlb11LRz9eW/1IWVgBPlW9b/Z7fKiSAAIIwPJ3jxbfOT61epGSsII8pTpzat+hurOSAAIIwPK1rnr2rP+a6sfKwgpybPXWWf9FnpsBAQRg+TqwuuHUPqV6sZKwAj1z+v2tcY7NHygJIIAALM/Hr2fO+q+ujlcWVqAftnTb6OdXuyoLIIAALC/3r/aa2r+sXqokrGAvro6b2pevDlESQAABWD52rp436780ox+sbKe09HDCP6t2VxZAAAFYHh5d7TG1j69epiSsAm+tvjS1d8l5NoAAArAsXKL6i1n/uY0pWLDSnV09cda/f3UzZQEEEIDt68nVZab2t6q/URJWkY9U753a66q/mj4CCCAA28GVqsfN+k+rzlAWVpk/r349tW9R3U9JAAEEYPt4dnXRqX1k9Y9Kwir0jepVs/6h1cWUBRBAALat67X0gLanVOuVhVXqOS3u7LZ7S3fIAhBAALaBF1c7TO0PTxesVr9o6WYLT6iuqSyAAAKwbdy9utvUPqs6WElYA95cfWFq79xYkA4ggABsZRu+8HpL9Z/KwhpwdvWYFqca3r36XWUBBBCAretxLU49+UXmwrO2HNE4oHDBX1UXURZAAAHYOi7f0nnwz69+rCysMU+uTpraezS26QUQQAC2ghdWF5/a36heoSSsQSdUz5z1D6mupiyAAAKwZd28euis/4QWD2eDtebV1VFT+6LCOCCAAGz5x6ZXVuum/vurDygLa9hZ1aMbC9Or7jldAAIIwBbw8Gqfqf2r6rFKAn22esOs/6pqV2UBBBCAC+bSjbUfCw6t/ltZoKqnNNaEVF2lepaSAAIIwAXz/CmE1Fh4/kIlgf/xs+qJs/7jqhspCyCAAJw/+1aPnPUPakzBAha9vfro1L5wY1rWDsoCCCAA582Fq9fPHpfeUX1EWeB/WV89qjpt6t+kMRICIIAAnAd/Vu09tU+a+sDGfbN6zqz/nJwNAgggAJvt6i09aO0vqh8pC5yjl1ZfmtoXa0zFWqcsgAACcM7WVa9rHK5W9bmpD5yzMxprps6a+nes/khZAAEE4Jw9orrT1D6zMbf9bGWBzfK56iWz/ourPZQFEEAANm73xjSSBS+rjlIWOE+eWX1lau9WvTlTsQABBOB/WdeYs77b1D+2petAgM3z6+r3GyOIVbernqAsgAACsNSjqv2n9lnVw3LmB5xfR1YvmPVfUF1fWQABBGC4VmOu+oKXNOayA+ff86rPT+2dq7+bPgIIIMCatmPjJOeLTf0vVc9QFrjAzqgeXJ069W8whRIAAQRY055e3XRq/6p6UHW6ssAW8fXqSbP+E6s7KwsggABr1e2qp876h1RfVhbYol5XvX9qr6v+T3UFZQEEEGCtuUxjTvoOU//fqr9WFtji1ld/WB039S/XmPa4g9IAAgiwVqyr3lpdcer/qLFt6Hqlga3i+OqhLR7qeYeWjj4CCCDAqvbE6u5T+6zGQtkfKwtsVR+pDp31n1ndRlkAAQRY7W5TvXDWf2H1UWWBbeKZ1RFTe4fGNMjLKAsggACr1RWqf2xx7vnHcto5bEtnVPevfjr1r9yYDrlOaQABBFhtdprCx+Wn/g+mF0JnKQ1sU9+pHtLimqu7V3+uLIAAAqw2f1XdemqfXt23sTAW2Pb+paXrQV5Q3V5ZAAEEWC0eUR006z+x+oyywHb1tOoTU3uHxgjllZUFEECAlW6/6tWz/puqVykLbHdnVfervj/1L1u9uzFdEkAAAVaka1Tvmb2g+Y+WjoQA29ePq/s0pkVW3ax6rbIAAgiwEl2iOqzxrmqNd1kPnL3QAZaHI6rHzPoPrx6rLIAAAqwkO07hY6+pf2p1t8aJ58Dy8/rG9MgFL2uclg4ggADL3rrGmo+FFy9nVQ+ojlEaWNYOqj41tXeo3tmYRgkggADL2guqR876j63epyyw7J1e3btxTkjVpat/rS6lNIAAAixXj64OmfVfUr1GWWDFOKG6R3XK1L9GdsYCBBBgmTqweuWs/3fVwcoCK84x1QMb0ydrTKd8nbIAAgiwnOxfvaMxb7zq8MZOOuuVBlak91WPn/Uf1tLRTQABBNhu9mvpWR+fz3a7sBq8qqVngrxgCiIAAgiw3dyk+kB10an/5eru1c+VBlaFx7S4icS66g3VPZUFEECA7eFG1YcbBw5WfbO6S2MRK7A6LGyj/dmpv0NjuuXNlAYQQIBtae8pfCxsz/nd6s7VD5QGVp1TGztjfX3qX7R6f4sHjQIIIMBWdcMpfFx66n+7um31X0oDq9YJ1W9X35/6l6n+pbqq0gACCLA13bT6aHXZqf9f1e2mEAKsbt+v7lb9ZOpfufpIdQWlAQQQYGu4VWPk4zem/jem8PEdpYE145jGRhO/nPrXmB4XLqs0gAACbEl3rD7Y4oLzr1W3r76nNLDmfLa6V3Xa1N+zpWvCAAQQ4AK5b2Or3YtN/a9O4cOCc1i7Dp8eGxbO+9m7+lB1SaUBBBDggjio+vsWDxk8pjHt6jilgTXv/Y0tehdCyD6NNSFGQgABBDjP1lXPrl7d2Pe/6tON3a5+rDzA5LDqQY3zQmocTvqRFteKAQggwLnaqXpb9YzZvfc3zvn4mfIAG3h39cBZCLnxFEIupzSAAAKcm0s1Fps/ZHbvLdUBjcPIADbmndX9W5yOdaPqE9UVlQYQQIBNuWb1mcYC86r11TOrh1dnKg9wLt5d3WcWQq7TmLq5h9IAAgiwoTtWR0wvGJpeQPx+9RylAc6D91W/2+IWvXtMIeT6SgMIIMCCP63+tcVFoydW+1d/qzTA+fDB6i7Vz6f+FatPVrdRGkAAgbXtIo3F5q+sLjzd+0p188bcbYDz65ON6ZwLu+Zdqvq3xnoyAAEE1qA9Gus9Hjq794HqFtW3lAfYAo5qjHp8Z+pfpHpX9SdKAwggsLbcvfp8Y5eaGovNn1fds/ql8gBb0Ncbb2wcPfV3qF5VvazFM4YAAQRYpXasDq3+ubr0dO+kxoLRp1dnKxGwFRxX3br68OzeExq7Zl1MeQABBFan3Rtzsg9unHJe9eVq3ymQAGxNv2yMvr5tdu9e1aeqqygPCCDA6nL/xvSHm8/uvb66WfUN5QG2kTOqP6ie2pj6WWMq6Beq/ZQHBBBg5bt4493Gd1SXnO6dXD24+uOcbA5sH39Z/V51ytS/XHV49QilAQEEWLluW/1nS3e5OrLap/o75QG2s8Omx6nvTv2dqjdM10WUBwQQYOW4aPXyxruJe0z3zq5e2NiJ5mtKBCwTC2+KfGR27xGNk9OvpjwggADL336NUY/Hzf4tf6e6Q/WUxvxrgOXkhMap6S9ocV3ITRrrQn5HeUAAAZani1evbuxydc3p3vrqTdUNcqo5sLydVf1FY1esk6Z7l67e1zgvZGclAgEEWD7uVR1bHTT79/uD6m6NqQy/UCJghXhfY2vwL039dY3zQj5dXUN5QAABtq+rVe+t3lNdabq3vnpjdf3qg0oErEDfaKxXe/vs3j7VF6uHKw8IIMC2t1P1tMaoxz1n979e3b56ZItTGABWolOrh1R/2Ng6vGq3xrTS91SXUSIQQIBt44DqK9Vzq12me6dXz6v2zloPYHV5c2NB+pGze/eqjpk+AgIIsJVcr7Gt7mEtnQf94Wqv6unVr5QJWIW+Xt2yOrSxWL3q8o2RkH+a2oAAAmwhV6heVx3dmF614LvV/ar9pydngNXs9OqQ6nbVt2b3D6z+X2Oq1jplAgEEOP8u0ZhW9Y3qj6sLT/dPq55f7Vm9U5mANebTjemmr23xzJBLNjbf+Gh2ygIBBDjPdqn+rPpmY0/8i03311fvqK7TWIB+slIBa9QpjW3Hb1t9dXb/9o3tew9u8U0bQAABNuEi1WMbUwte2tIdXj7e2JLygY2pVwDUpxqjIc9ocQ3cLo21Ikc1pmsBAgiwgYtNweMb1Ssaaz4WfLm6e+Ndvc8qFcD/cnpjV8C9q4/N7l9/6v9DtbsygQAC1KWrZ1bfnoLHlWef+3pj//u9q39RKoBz9fXqt6uHVSfO7t+vxa3Ld1UmEEBgLdq9enn1nepZLZ1q9d/Tk+eejROAz1YugM22vnprdd3G+SELj6G7NtbOfb1xUKv1ISCAwJqwZ/W2xuLyx7W4uLzG9KuHV9eenjzPVC6A8+3Exra8+zTWiSy4QvX6xrbm9862vSCAwCq0Q+Pk8g82Tu19aLXj7PPHVA9ovFv3luoMJQPYYo5q7JT1wMZ01wXXq95dfa66izKBAAKrwRUaJ5N/u3Fy+Z1b+k7bx6rfaazx+IcWT/YFYMta2ML82o0tzufrQ/ap/rUxSnJnpQIBBFaadY3dqt7ZWN/xnJYuLD9jChv7VHeoPtDiIVoAbF2nV39VXbN6QUvPUrpVY6T6s9U9MzULBBBY5q5QPaGxy8rh1X1aOs3qB43F5ldrTLc6UskAtpuTGoe8Xr1x5tJps8/tW723sUbk4dXOygUCCCwXu1YPagzdf696WWMdx4L1Uxj5vSl4PLv6obIBLBsnVE+agsgrqlNnn9urelPj4NdnVb+pXCCAwPawQ7V/9bfVcY1tcu8y3V9w0vREdt3GfvT/lB2tAJazH1WPr/ZoTM36+exzl2uc1/Sdxra+N1AuEEBgW/xbuEVjhOO71b9VD27pYVbrq082zu+48vRE9jWlA1hRjm9MzbpqdUhLR613nh7jj64+Ut2rpVNtgS3AAT2sZTs3FpMfUN2jscZjY77dGA15W/UtZQNYFX5eHdpYsP6AxptKN5x9/ren6/jq7xpbqB+jbHDBGQFhrbl4df/GLlXHN9Z2/NFGwsfx1asbO6ZcvXqG8AGwKp3eeIPpRlPgOKylU2ov19iA5EvVEdNzxiWUDc4/IyCsBbs3zuK4R2Nb3J028XU/aeyK8q7qwzmzA2CtOXy6rlT9cfWIlr5BdbPpevkUVN42fb3nCxBAWOMuVN10ChwLhwBuynFT6Pin6uNZSA7A2Fb9GdVzq7tVfzh9XNiMZJfGDokPqn48PYf8Y/Xp6mzlAwGEtWHX6k5T4Lh757yV4tHV+6v3VV/wZAHAJpzReJPqvdUVq4dM156zr/nN6qDpOq76v9V7qk80pncBG1i3fr0Dmtk6DjzggK36u9vYJnH/xha5t2rTU6t+3Rjd+OcpeHzHTweAC+BGUxC53xRMNubnjXWG760+VP10a/1lDnvPe/xEWFGMgLCSXLYxynGnKXRc/hy+9oQpbHygsaXuycoHwBZy1HQ9qbp1dZ/q3hs8L12isenJ/RtrRD43BZIPVl/MuhEEEFiWLlLdsrrjdN2kTe/ctr768hQ6/rn6bKZWAbB1nd2YavWJ6nGN0fgDqns2DjxcsEPjrKlbVM+pftYYmf9Y9dHqWKVEAIHt9/u4T2MbxNtX+00hZFN+2tit6oPT9SMlBGA7OWsWRh5f7TUFkbtV+27wmutSU1BZmKv8o8bBhx+dru8pJwIIbB0Xmh6gbz+FjttWu53Lg/t8CPvIjHIAsDwdM13Pb0zHul1jCvH+1TU3+NrLVw+erqqvzcLIxxojJiCAwPmwQ2NL3NtMD8S3qi59Dl+/MK3qY4191j/eWNQHACvJz1vcTavqao2pxfs33oD7jQ2+/trTdVDjzbcvTs+Fn2xs9eu5EAEEzuH3a5/GAr3bToHj3E6PPXYKGh+fHmxPVEYAVplvV2+crgs1dtVaWO+4X+OckQU7NM62uml18BRIvjSFkX+vPtM4twRWjBWxDe9W3s6VLWe3xgmxt5xCx80b53Ock2+2OLrx8cYe6gCwVl1kCiF3bIyO3LjFAxA35b+mIPIfjanKRzfOMGGZWutbJxsB4YLYfXqQvEVjdOMGm/Eg+e3GyMbC9X1lBID/8asW13/UWLB+m8Ybe7dq7Ai54eu3q0/Xg2d/xlFTGFm4vqm0CCCsNAvrN+aB4yqb8X3frj7VGN04fOoDAJvnZy1dP3KxxmyDW02h5BbTvbmLtLjt74KfzMLIF6aAYuoWAgjLym6NKVS3akypulnnvENVjXmp/9kYBv50Y26qBzcA2HJOabyhd/jstdyNpufqfafn69/ayPddurrrdC340fS8feTs438rMQII28rVpwet/abQcf3OfTrVLxsH/v37FDg+O90DALaNM6vPT9eCy0zP6fvOQsmlNvK9l6/uMl0LTmrsunVUYy3Jl6r/V52u1AggXBAXa8whXRievdn0IHRuftAY3fjU9PHo6YEPAFg+Tqw+MF1V6xpnj+zbWNR+48aoycU38r2XrO4wXQvOqL46hZH59UOlRgBhU67RmE61EDb23oyf/dmNLXEXplL9e4ZlAWAlWl99fbrevkEoufEG18ZGSnZsHBy8V/WgDYLO0dVXpuuY6bWDc0oQQNaYXRtnb+zXeKfjFtVlN+P7TqqOaGzhd0RjOpUHEABY/aHkH2b396hu2NjZcu/p49WnwLKhyzS2Cv7tDe5/ZwoiX56ur0z905QdAWR1uNYUMvadQsfmrN1YGN34j1no+Or0YAQArF3/PV3zgyou3hj9WAgkN6z2bNNnfV11uu66wWuPb0+B5P9N17HT6w/rRwUQlrGLNU5C3W8WOjZndOOnjW33/qOxduPzGd0AADbPL1qcjr1gXWO05PpTGLnB9PHa1U4b+TMu1OJ5Jffc4HPfnoLIV6aPx05tr1UEELaDqze21bvF9PH6bf7ajc80RjeOyOgGALBlrW+cwP5f1ftm93dszM64fmPU5LpT++rn8BrmatN1lw3u/6CloyULU7l+ovwCCFvGLo21G7ecrptXl9uM7/tpY2Tjs7OPhjIBgO3hjBYXpf/j7P5OUzDZs7reFEyuN93bcRN/1pWm644b3D9hFka+MgWUL0/3EUA4B1dt6ejG5uxMddb0D2xh3cZ/VN/I6AYAsLyd3uKi9LkdG7t1Xm+69qyuM107b+LPumx1u+maO7HFNSZfbswAOUYwEUDWcp33rm49hY1bVVfYjO87oTGicURjStUXMroBAKweZ7Q4zeqfZvd3aJzovhBIFkZOrtOYNbIxl9lEMPnJFES+ukFAOV75BZDVZLfGyMZ+03XzxgLyczJfu/GZxujG15USAFiDzmpxm+C5CzXWiyyMllx3Fkx228SfdelzCCYLgWThHJMvVT9TfgFkJbhcY3TjNtO1V+e+Fe4pjdGNT7c4ncpuDwAAm3Z2i4vf37/B567W4mjJfNTkEucQTG47XXPfn4WRY1ocPTld+QWQ7elK0y/rQui4bhs/oGfuu43t6xa2wj26OlMpAQC2iG9P1wc38rrtuo03iPecPl6vTZ9jcuXpmp9jcsYUQo6u/nO6jmpsBoQAslVcubpDdfspdPzWZqTzL1WfmgLHJxtbyQEAsG39YLo+Mru3qXNMrtPGd+XacQoue1UPnt3/7hRGvjgFkv+c7iGAnGcLuyv89hQ6rnUuX39mdeQUND7ZmFZ1kjICACxLm3OOyQ0aIyV7TWHlQhv5c3afrvnhij9pbBz0+enj56rjlHyW/tavX/47uB54wAFb+z+x2waBY6/OeUrVr6dfpk80Rjk+U53s1wkAYFXarbrhdN2ouvEUTnbczO///iyULFwnbcv/gcPe855lU8y1OgJyoeom1f7TdctzqcUpja1wPzmFjs9Vp/m3CACwJvyy8abzp2b3dmqMlNxkFk72buM7ny6sK7nX1F/fWFPymRan7K+Z3U/XUgC5UnWn6i6N9RyXPYevPX36RfhY9dHGblVn+LcHAMDs9eIXp2vBDo0pXDdsjJLcqNqn/70T17rGwvjrVn843TuhsWHRwg6pRzZm3QggK8iFGudv/M507XUOX3t2Y+HQR6vDpyR6qn9XAACcB2e1eLDiO2Zh4zrVvtN1s8b6kg2nb122MUJyr6l/WmOEZOEN8S+0SnZQXW0BZLfGlKp7VHfrnEc5flB9uLFV2+FT6gQAgC1p/SyUvG26t0tjdOQW1a0aB1dv+Lp1l8b65N+unlf9orEU4PDpOmb6swWQ7WD36ncboxy3a8zH25RTq483tmE7ZnZ/b/82tigniK4MJ63UB64V7PTGmjLw75PVbrfstnpuFkLJm6f+tacgsqlAcvHGm+z3mPrHT0HkA9W/tYLeTF+pvxhXq36vundjGGvdZn7fRRsjI3fzOw8AwAp2uer+03V2Y83IB6p/bum6FAHkArjGFDju09htAAAAGGufbzpdz2ochvi+xujKUQLI+XPj6qDqqo3pPR/xe7ZdXbLNH3ViebpotbMybHUX65ynhbI2XLyxMw6sZmfkTLTlZLfqQdV9q0Ord1XfWy5/uRVxECEAALA6XEgJAAAAAQQAABBAAAAABBAAAEAAAQAAEEAAAAABBAAAEEAAAAAEEAAAQAABAAAQQAAAAAEEAAAQQAAAAAQQAABAAAEAABBAAAAAAQQAABBAAAAABBAAAEAAAQAAEEAAAAABBAAAEEAAAAAEEAAAQAABAAAQQAAAAAEEAAAQQAAAAAQQAABAAAEAABBAAAAAAQQAAEAAAQAABBAAAEAAAQAAEEAAAAABBAAAQAABAAAEEAAAQAABAAAQQAAAAAEEAABAAAEAAAQQAABAAAEAABBAAAAAAQQAAEAAAQAABBAAAEAAAQAAEEAAAAABBAAAQAABAAAEEAAAQAABAAAQQAAAAAEEAABAAAEAAAQQAAAAAQQAABBAAAAAAQQAAEAAAQAABBAAAAABBAAAEEAAAAABBAAAQAABAAAEEAAAAAEEAAAQQAAAAAEEAABAAAEAAAQQAAAAAQQAABBAAAAAAQQAAEAAAQAABBAAAAABBAAAEEAAAAABBAAAQAABAAAEEAAAAAEEAAAQQAAAAAFECQAAAAEEAAAQQAAAAAQQAABAAAEAABBAAAAAAQQAABBAAAAABBAAAEAAAQAAEEAAAAABBAAAEEAAAAAEEAAAQAABAAAQQAAAAAEEAAAQQAAAAAQQAABAAAEAABBAAAAAAQQAABBAAAAABBAAAEAAAQAAEEAAAAABBAAAEEAAAAAEEAAAQAABAAAQQAAAAAEEAABAAAEAAAQQAABAAAEAABBAAAAAAQQAAEAAAQAABBAAAEAAAQAAEEAAAAABBAAAQAABAAAEEAAAQAABAAAQQAAAAAEEAABAAAEAAAQQAABAAAEAABBAAAAAAQQAAEAAAQAABBAAAEAAAQAAEEAAAAABBAAAQAABAAAEEAAAAAEEAAAQQAAAAAEEAABAAAEAAAQQAAAAAQQAABBAAAAAAQQAAEAAAQAABBAAAAABBAAAEEAAAAABBAAAQAABAAAEEAAAAAEEAAAQQAAAAAEEAABAAAEAAAQQAAAAAQQAABBAAAAAAQQAAEAAAQAABBAAAAABBAAAEEAAAAABRAkAAAABBAAAEEAAAAAEEAAAQAABAAAQQAAAAAEEAAAQQAAAAAQQAABAAAEAABBAAAAAAQQAABBAAAAABBAAAEAAAQAAEEAAAAABBAAAEEAAAAAEEAAAQAABAAAQQAAAAAEEAAAQQAAAAAQQAABAAAEAABBAAAAAAQQAABBAAAAABBAAAEAAAQAAEEAAAAABBAAAQAABAAC2rf8/ALoq+VuLq6jWAAAAAElFTkSuQmCC;" vertex="1" parent="1">
          <mxGeometry x="1623.33" y="240" width="93.34" height="70" as="geometry" />
        </mxCell>
        <mxCell id="xQ31_4lAjrQs9WSGZhHq-20" value="$${\mu}&#39;$$" style="text;html=1;align=center;verticalAlign=middle;resizable=0;points=[];autosize=1;fontSize=20;" vertex="1" parent="1">
          <mxGeometry x="1590" y="290" width="110" height="30" as="geometry" />
        </mxCell>
        <mxCell id="xQ31_4lAjrQs9WSGZhHq-24" style="edgeStyle=orthogonalEdgeStyle;rounded=0;orthogonalLoop=1;jettySize=auto;html=1;entryX=0;entryY=0.5;entryDx=0;entryDy=0;fontSize=20;" edge="1" parent="1" source="xQ31_4lAjrQs9WSGZhHq-21" target="xQ31_4lAjrQs9WSGZhHq-23">
          <mxGeometry relative="1" as="geometry" />
        </mxCell>
        <mxCell id="xQ31_4lAjrQs9WSGZhHq-21" value="Interact&lt;br&gt;(with env)" style="rounded=0;whiteSpace=wrap;html=1;fillColor=none;fontSize=20;" vertex="1" parent="1">
          <mxGeometry x="1000" y="240" width="160" height="80" as="geometry" />
        </mxCell>
        <mxCell id="xQ31_4lAjrQs9WSGZhHq-26" style="edgeStyle=orthogonalEdgeStyle;rounded=0;orthogonalLoop=1;jettySize=auto;html=1;entryX=0;entryY=0.5;entryDx=0;entryDy=0;fontSize=20;" edge="1" parent="1" source="xQ31_4lAjrQs9WSGZhHq-23" target="xQ31_4lAjrQs9WSGZhHq-25">
          <mxGeometry relative="1" as="geometry" />
        </mxCell>
        <mxCell id="xQ31_4lAjrQs9WSGZhHq-23" value="&lt;font face=&quot;Play&quot; style=&quot;font-size: 20px&quot;&gt;Image&#39;&lt;/font&gt;" style="ellipse;whiteSpace=wrap;html=1;aspect=fixed;fillColor=none;fontSize=20;" vertex="1" parent="1">
          <mxGeometry x="1240" y="230" width="100" height="100" as="geometry" />
        </mxCell>
        <mxCell id="xQ31_4lAjrQs9WSGZhHq-28" style="edgeStyle=orthogonalEdgeStyle;rounded=0;orthogonalLoop=1;jettySize=auto;html=1;entryX=0;entryY=0.5;entryDx=0;entryDy=0;fontSize=20;" edge="1" parent="1" source="xQ31_4lAjrQs9WSGZhHq-25" target="xQ31_4lAjrQs9WSGZhHq-18">
          <mxGeometry relative="1" as="geometry" />
        </mxCell>
        <mxCell id="xQ31_4lAjrQs9WSGZhHq-25" value="Encode" style="rounded=0;whiteSpace=wrap;html=1;fillColor=none;fontSize=20;" vertex="1" parent="1">
          <mxGeometry x="1420" y="240" width="120" height="80" as="geometry" />
        </mxCell>
        <mxCell id="xQ31_4lAjrQs9WSGZhHq-36" style="edgeStyle=orthogonalEdgeStyle;rounded=0;orthogonalLoop=1;jettySize=auto;html=1;exitX=1;exitY=0.5;exitDx=0;exitDy=0;entryX=0;entryY=0.5;entryDx=0;entryDy=0;fontSize=20;" edge="1" parent="1" source="xQ31_4lAjrQs9WSGZhHq-29" target="xQ31_4lAjrQs9WSGZhHq-32">
          <mxGeometry relative="1" as="geometry" />
        </mxCell>
        <mxCell id="xQ31_4lAjrQs9WSGZhHq-29" value="Imagine&lt;br&gt;(Predict )" style="rounded=0;whiteSpace=wrap;html=1;fillColor=none;fontSize=20;" vertex="1" parent="1">
          <mxGeometry x="1000" y="400" width="160" height="80" as="geometry" />
        </mxCell>
        <mxCell id="xQ31_4lAjrQs9WSGZhHq-32" value="" style="ellipse;whiteSpace=wrap;html=1;aspect=fixed;fillColor=none;fontSize=20;" vertex="1" parent="1">
          <mxGeometry x="1240" y="390" width="100" height="100" as="geometry" />
        </mxCell>
        <mxCell id="xQ31_4lAjrQs9WSGZhHq-34" value="$$\hat{\mu}&#39;$$" style="text;html=1;align=center;verticalAlign=middle;resizable=0;points=[];autosize=1;fontSize=20;" vertex="1" parent="1">
          <mxGeometry x="1195" y="450" width="140" height="30" as="geometry" />
        </mxCell>
        <mxCell id="xQ31_4lAjrQs9WSGZhHq-35" value="$$\hat{\sigma}&#39;$$" style="text;html=1;align=center;verticalAlign=middle;resizable=0;points=[];autosize=1;fontSize=20;" vertex="1" parent="1">
          <mxGeometry x="1230" y="450" width="170" height="30" as="geometry" />
        </mxCell>
        <mxCell id="xQ31_4lAjrQs9WSGZhHq-39" style="edgeStyle=orthogonalEdgeStyle;rounded=0;orthogonalLoop=1;jettySize=auto;html=1;fontSize=20;entryX=1;entryY=0.5;entryDx=0;entryDy=0;" edge="1" parent="1" source="xQ31_4lAjrQs9WSGZhHq-37" target="xQ31_4lAjrQs9WSGZhHq-41">
          <mxGeometry relative="1" as="geometry">
            <mxPoint x="1560" y="440" as="targetPoint" />
          </mxGeometry>
        </mxCell>
        <mxCell id="xQ31_4lAjrQs9WSGZhHq-37" value="Sample" style="rounded=0;whiteSpace=wrap;html=1;fillColor=none;fontSize=20;" vertex="1" parent="1">
          <mxGeometry x="1610" y="400" width="120" height="80" as="geometry" />
        </mxCell>
        <mxCell id="xQ31_4lAjrQs9WSGZhHq-48" style="edgeStyle=orthogonalEdgeStyle;rounded=0;orthogonalLoop=1;jettySize=auto;html=1;exitX=0;exitY=0.5;exitDx=0;exitDy=0;entryX=1;entryY=0.5;entryDx=0;entryDy=0;dashed=1;endArrow=oval;endFill=0;strokeWidth=2;fontSize=20;strokeColor=#999999;" edge="1" parent="1" source="xQ31_4lAjrQs9WSGZhHq-41" target="xQ31_4lAjrQs9WSGZhHq-32">
          <mxGeometry relative="1" as="geometry" />
        </mxCell>
        <mxCell id="xQ31_4lAjrQs9WSGZhHq-41" value="&lt;font face=&quot;Play&quot; style=&quot;font-size: 20px&quot;&gt;Latent&lt;br&gt;Feature&lt;br&gt;&lt;/font&gt;" style="ellipse;whiteSpace=wrap;html=1;aspect=fixed;fillColor=none;fontSize=20;" vertex="1" parent="1">
          <mxGeometry x="1430" y="390" width="100" height="100" as="geometry" />
        </mxCell>
        <mxCell id="xQ31_4lAjrQs9WSGZhHq-49" value="Query" style="text;html=1;align=center;verticalAlign=middle;resizable=0;points=[];autosize=1;fontSize=20;labelBackgroundColor=none;fontColor=#999999;" vertex="1" parent="1">
          <mxGeometry x="1350" y="410" width="70" height="30" as="geometry" />
        </mxCell>
        <mxCell id="xQ31_4lAjrQs9WSGZhHq-50" value="Probability&lt;br&gt;(Reward)" style="ellipse;whiteSpace=wrap;html=1;labelBackgroundColor=none;strokeWidth=1;fillColor=none;fontSize=20;strokeColor=#FF0000;fontColor=#FF0000;" vertex="1" parent="1">
          <mxGeometry x="1325" y="560" width="120" height="80" as="geometry" />
        </mxCell>
      </root>
    </mxGraphModel>
  </diagram>
</mxfile>
